<svg width="18" height="17" viewBox="0 0 18 17" fill="none" xmlns="http://www.w3.org/2000/svg">
<path d="M14.3147 10.8414L16.9628 13.4895C17.3189 13.8456 17.3189 14.4229 16.9628 14.779C15.0376 16.7043 11.9897 16.9209 9.81155 15.2873L8.23613 14.1057C6.4926 12.7981 4.94378 11.2492 3.63613 9.50571L2.45457 7.93029C0.820966 5.75215 1.03757 2.70426 2.96279 0.779046C3.31889 0.42295 3.89623 0.422949 4.25233 0.779046L6.90045 3.42717C7.29098 3.81769 7.29098 4.45086 6.90045 4.84138L5.8793 5.86253C5.71702 6.02482 5.67679 6.27274 5.77943 6.47801C6.96609 8.85133 8.8905 10.7757 11.2638 11.9624C11.4691 12.065 11.717 12.0248 11.8793 11.8625L12.9005 10.8414C13.291 10.4509 13.9241 10.4509 14.3147 10.8414Z" stroke="black"/>
</svg>
