<svg width="18" height="18" viewBox="0 0 18 18" fill="none" xmlns="http://www.w3.org/2000/svg">
<path d="M8.60756 17.1343C13.0258 17.1343 16.6076 13.5526 16.6076 9.13428C16.6076 4.716 13.0258 1.13428 8.60756 1.13428M8.60756 17.1343C4.18928 17.1343 0.607559 13.5526 0.607559 9.13428C0.607559 4.716 4.18928 1.13428 8.60756 1.13428M8.60756 17.1343V1.13428M15.1795 4.34065C14.4558 5.1878 13.4944 5.88289 12.3747 6.3685C11.2551 6.8541 10.0092 7.11628 8.74021 7.13338C7.47117 7.15048 6.21534 6.92201 5.07646 6.46684C3.93758 6.01166 2.94833 5.34285 2.19044 4.51566M15.1795 13.9279C14.4558 13.0808 13.4944 12.3857 12.3747 11.9001C11.2551 11.4145 10.0092 11.1523 8.74021 11.1352C7.47117 11.1181 6.21534 11.3465 5.07646 11.8017C3.93758 12.2569 2.94833 12.9257 2.19044 13.7529" stroke="black"/>
</svg>
