<svg width="25" height="16" viewBox="0 0 25 16" fill="none" xmlns="http://www.w3.org/2000/svg">
<path fill-rule="evenodd" clip-rule="evenodd" d="M2.52645 0.860058C1.91887 0.96014 1.32094 1.41637 1.03569 1.99744L0.883808 2.30692L0.871 7.09064L0.858192 11.8744L0.714163 12.0059C0.634935 12.0783 0.5389 12.2121 0.50081 12.3034C0.407822 12.5259 0.405203 13.5091 0.497048 13.7237C0.576324 13.909 0.78782 14.1144 0.970226 14.1833C1.05512 14.2154 1.68371 14.234 2.68439 14.234H4.26447L4.37945 14.4507C4.52691 14.7286 4.93157 15.0982 5.25696 15.2522C5.7916 15.5051 6.451 15.505 6.98598 15.2519C7.31093 15.0982 7.71564 14.7285 7.86301 14.4507L7.97799 14.234H13.6275H19.2772L19.3958 14.4363C19.6918 14.9411 20.2709 15.3314 20.8588 15.4223C21.6319 15.5419 22.4714 15.155 22.8643 14.4981L23.016 14.2444L23.4722 14.2244C23.9838 14.2021 24.2023 14.1181 24.4588 13.8454C24.7955 13.4872 24.7855 13.5606 24.7855 11.4486C24.7855 9.57342 24.7839 9.54104 24.68 9.34683C24.4905 8.99254 24.2653 8.85342 23.0278 8.32611L21.8637 7.83003L20.595 5.13499C19.2277 2.23022 19.0935 1.99558 18.5482 1.55535C18.213 1.28472 17.719 1.03537 17.2857 0.918098C16.9985 0.840346 16.482 0.833918 9.88265 0.825681C5.8206 0.820682 2.67639 0.835346 2.52645 0.860058ZM17.2729 1.76594C17.7064 1.9244 18.1644 2.24917 18.4165 2.57684C18.5659 2.771 19.191 3.98037 19.191 4.07517C19.191 4.08465 18.8535 4.09255 18.4411 4.09269C18.0286 4.09284 17.6055 4.11659 17.5007 4.1455C17.2138 4.22468 16.8407 4.61948 16.7441 4.9462C16.6373 5.30682 16.6351 6.89924 16.7408 7.30819C16.8785 7.84069 17.2533 8.25854 17.774 8.4599C17.9459 8.52641 18.249 8.54122 19.7623 8.55707L21.5478 8.57579L22.6667 9.05144C23.3646 9.34807 23.826 9.57157 23.8928 9.64537C23.9968 9.7603 23.9999 9.79263 23.9999 10.7847V11.8057H23.1895C22.4162 11.8057 22.3709 11.8005 22.1982 11.6914C21.2149 11.0707 19.8582 11.4713 19.3334 12.5373C19.2362 12.7348 19.1735 12.9461 19.1565 13.1338L19.1301 13.4245H13.6436H8.15706L8.12502 13.141C8.07979 12.7413 7.8282 12.2613 7.50243 11.9532C6.87289 11.3578 5.99715 11.2274 5.21454 11.6127C4.65618 11.8876 4.17305 12.5654 4.11168 13.1598L4.08435 13.4245H3.6863H3.28826V12.9793C3.28826 12.4767 3.23555 12.2714 3.05562 12.0736C2.86093 11.8597 2.67805 11.8057 2.14707 11.8057H1.66942V7.18573C1.66942 2.08314 1.64909 2.41638 1.98262 2.04724C2.1884 1.81946 2.3549 1.72238 2.6372 1.66557C2.74652 1.64358 6.00696 1.62891 9.88265 1.63296L16.9294 1.64034L17.2729 1.76594ZM20.2458 6.29608L20.896 7.68719L19.495 7.6998C17.9697 7.71352 17.9456 7.71004 17.6938 7.4385C17.5123 7.24272 17.467 6.92833 17.4848 5.98874C17.5002 5.17427 17.5044 5.14337 17.6161 5.02457L17.7316 4.90183L18.6636 4.9034L19.5957 4.90497L20.2458 6.29608ZM9.07323 11.9572C8.91854 12.141 8.93706 12.344 9.12346 12.508L9.24521 12.6151H13.6015C18.227 12.6151 18.1727 12.6177 18.2568 12.3987C18.3276 12.2141 18.2867 12.0034 18.1609 11.9044C18.036 11.8062 18.0149 11.8057 13.6181 11.8057H9.20074L9.07323 11.9572ZM6.60083 12.3042C6.81533 12.3935 7.0882 12.6497 7.20614 12.8725C7.36626 13.1749 7.35464 13.7083 7.18157 14.0028C6.93474 14.4226 6.59293 14.6203 6.11328 14.6206C4.92472 14.6214 4.46616 13.1116 5.4436 12.4156C5.7519 12.1961 6.23055 12.15 6.60083 12.3042ZM21.713 12.353C22.5815 12.7952 22.5796 14.0434 21.7097 14.4867C21.2068 14.7431 20.6367 14.644 20.2696 14.2363C20.0264 13.9665 19.9526 13.7741 19.9538 13.4142C19.957 12.4945 20.8879 11.933 21.713 12.353ZM2.47884 13.0198V13.4245H1.85987H1.24091V13.0198V12.6151H1.85987H2.47884V13.0198ZM23.9999 12.8807C23.9999 13.1107 23.9813 13.1648 23.8607 13.2854C23.7409 13.4052 23.6854 13.4245 23.4614 13.4245H23.2013L23.1675 13.1984C23.149 13.074 23.1062 12.8919 23.0725 12.7937L23.0112 12.6151H23.5055H23.9999V12.8807Z" fill="black"/>
</svg>
