<svg width="16" height="18" viewBox="0 0 16 18" fill="none" xmlns="http://www.w3.org/2000/svg">
<path d="M1.41695 8.64816C1.41695 7.2904 1.41695 6.61152 1.69141 6.01478C1.96587 5.41804 2.48131 4.97624 3.5122 4.09262L4.5122 3.23548C6.37552 1.63835 7.30717 0.839783 8.41695 0.839783C9.52672 0.839783 10.4584 1.63835 12.3217 3.23548L13.3217 4.09262C14.3526 4.97624 14.868 5.41804 15.1425 6.01478C15.4169 6.61152 15.4169 7.2904 15.4169 8.64816V12.8885C15.4169 14.7742 15.4169 15.717 14.8312 16.3028C14.2454 16.8885 13.3026 16.8885 11.4169 16.8885H5.41695C3.53133 16.8885 2.58852 16.8885 2.00273 16.3028C1.41695 15.717 1.41695 14.7742 1.41695 12.8885V8.64816Z" stroke="#3485F3"/>
<path d="M10.9169 16.8885V11.8885C10.9169 11.3363 10.4692 10.8885 9.91695 10.8885H6.91695C6.36466 10.8885 5.91695 11.3363 5.91695 11.8885V16.8885" stroke="#3485F3" stroke-linecap="round" stroke-linejoin="round"/>
</svg>
