<svg width="114" height="26" fill="none" xmlns="http://www.w3.org/2000/svg"><path d="M9.124 7.404c-1.898 0-3.728.327-5.145.98-1.354.628-3.757 2.635-3.757 6.443v10.534H4.71v-9.54c0-.499.075-1.992.142-2.383.409-1.944 1.862-2.407 4.017-2.407.215 0 .476.01.734.03l1.045-3.55c-.368-.075-1.084-.107-1.525-.107z" fill="#000"/><path d="M96.544 7.404c-1.894 0-3.728.327-5.141.98-1.35.63-3.759 2.636-3.759 6.444v10.534h4.487v-9.54c0-.5.073-1.993.146-2.384.403-1.944 1.865-2.407 4.015-2.407.216 0 .472.01.74.03l1.037-3.55c-.368-.075-1.08-.107-1.525-.107zm-47.7 3.756c-3.277-1.24-4.71-2.09-4.71-3.929 0-1.384 1.239-2.868 4.088-2.868 2.304 0 4.025.673 4.9 1.132l1.092-3.508C52.942 1.353 50.967.78 48.294.78c-5.322 0-8.692 2.977-8.692 6.872 0 3.433 2.598 5.523 6.65 6.941 3.139 1.098 4.388 2.155 4.388 3.965 0 1.949-1.616 3.258-4.496 3.258-2.303 0-4.487-.708-5.952-1.526l-.989 3.615c1.358.78 4.053 1.52 6.646 1.52 6.36 0 9.352-3.365 9.352-7.185 0-3.439-2.079-5.524-6.357-7.08zM64.54 21.855c-1.722 0-2.303-1.097-2.3-3.19l-.003-7.616 3.115.008.956-3.257h-4.071V2.906l-4.384 2.11v14.147c0 2.267.44 3.822 1.388 4.818.837.881 2.235 1.448 3.872 1.448 1.427 0 2.592-.21 3.26-.459l-.083-3.328c-.507.14-.91.213-1.75.213z" fill="#E83587"/><path d="M18.692 7.404c-5.7 0-8.688 4.498-8.688 9.274 0 5.278 3.402 8.748 9.16 8.748 2.557 0 4.678-.495 6.202-1.094l-.657-3.01c-1.345.495-2.844.776-4.926.776-2.843 0-5.361-1.342-5.475-4.464h11.903c.068-.39.137-1.02.137-1.835 0-3.792-1.851-8.395-7.656-8.395zm-4.384 7.189c.191-1.77 1.356-4.214 4.133-4.214 2.987 0 3.712 2.616 3.675 4.209l-7.808.005z" fill="#000"/><path d="M113.774 15.8c0-3.793-1.864-8.396-7.669-8.396-5.692 0-8.689 4.498-8.689 9.274 0 5.278 3.402 8.748 9.165 8.748 2.557 0 4.677-.495 6.21-1.094l-.661-3.01c-1.344.495-2.842.776-4.926.776-2.85 0-5.369-1.342-5.474-4.464h11.901c.068-.39.143-1.02.143-1.835zm-12.047-1.207c.184-1.77 1.354-4.214 4.131-4.214 2.997 0 3.717 2.616 3.682 4.209l-7.813.005zM76.623 7.404c-5.37 0-9.208 3.47-9.208 9.132 0 5.524 3.878 8.89 8.911 8.89 4.532 0 9.123-2.829 9.123-9.167 0-5.24-3.532-8.855-8.826-8.855zm-.146 14.868c-2.741 0-4.422-2.509-4.422-5.837 0-2.87 1.279-5.837 4.459-5.837 3.064 0 4.305 3.07 4.305 5.763 0 3.47-1.788 5.91-4.342 5.91z" fill="#E83587"/><path d="M32.642 7.9c-1.608 0-2.773 1.169-2.773 2.796 0 1.594 1.125 2.76 2.735 2.76h.038c1.678 0 2.772-1.166 2.772-2.76-.038-1.627-1.13-2.796-2.772-2.796zm0 11.583c-1.608 0-2.773 1.172-2.773 2.798 0 1.56 1.125 2.761 2.735 2.761h.038c1.678 0 2.772-1.202 2.772-2.761-.038-1.662-1.132-2.798-2.772-2.798z" fill="#000"/></svg>