<svg width="202" height="20" fill="none" xmlns="http://www.w3.org/2000/svg"><path fill-rule="evenodd" clip-rule="evenodd" d="M19.245 4.24l-.063-1.67-.064-1.672-9.106-.056C5.002.81.838.852.756.932c-.08.08-.146.858-.146 1.727V4.24l3.669.06c3.072.049 3.673.111 3.698.383.016.178.041 3.564.055 7.524l.025 7.2 1.807-.063 1.807-.062.11-7.462.11-7.461 3.678-.06 3.677-.06zm20.388-1.233c.04-.684.043-1.463.004-1.73l-.07-.487-6.72.005c-6.026.004-6.81.045-7.598.398-1.104.496-2.205 1.718-2.504 2.781-.306 1.088-.302 11.157.005 12.247.334 1.192 1.834 2.6 3.103 2.916.658.164 3.254.253 7.38.253h6.365l.027-1.298c.015-.714.04-1.468.055-1.676.025-.35-.465-.387-6.653-.487l-6.681-.108-.063-2.104-.062-2.105 5.1-.058 5.1-.058V8.252l-5.092-.058-5.093-.059V4.25h13.322l.075-1.243zm11.042 1.465c-1.436-1.847-2.718-3.43-2.847-3.517C47.552.77 43.54.731 43.54.915c0 .068 1.535 2.121 3.41 4.562 1.877 2.441 3.366 4.55 3.311 4.688-.054.137-1.585 2.188-3.4 4.556-1.816 2.37-3.251 4.389-3.189 4.488.13.207 3.38.247 3.906.048.192-.073 1.594-1.727 3.116-3.676 1.523-1.95 2.796-3.545 2.83-3.545.034 0 1.216 1.485 2.627 3.299 1.41 1.813 2.76 3.468 2.996 3.676.342.3.835.379 2.379.379 1.07 0 1.947-.087 1.947-.193 0-.106-1.532-2.2-3.404-4.654-2.28-2.989-3.347-4.555-3.23-4.747.095-.158 1.626-2.18 3.403-4.495 1.777-2.314 3.23-4.28 3.23-4.367 0-.088-.959-.132-2.132-.098l-2.133.062-2.81 3.569c-1.545 1.962-2.877 3.522-2.96 3.465-.082-.057-1.325-1.614-2.762-3.46zm21.121 3.671V.79h-3.728l.057 9.246.057 9.246 1.807.062 1.807.063V11.82H82.52l.06 3.73.06 3.732h3.504l.058-9.246.056-9.246H82.53v7.353H71.796zm62.639-4.132c-.296-1.087-1.391-2.315-2.511-2.818-.776-.348-1.539-.394-6.593-.398-5.565-.005-5.741.008-6.681.498-.531.277-1.261.918-1.622 1.424l-.657.921v15.644h3.504l.058-7.343c.044-5.544.124-7.384.329-7.512.464-.292 10.11-.215 10.412.083.194.192.263 2.174.263 7.578v7.32l1.807-.064 1.807-.062.058-7.212c.036-4.565-.028-7.522-.174-8.059zm19.276-.626c-.512-.988-1.438-1.841-2.452-2.26-1.063-.438-3.956-.433-4.99.01-.976.417-1.902 1.284-2.405 2.25-.419.805-5.261 15.292-5.261 15.74 0 .186.514.265 1.738.265h1.738l.718-2.163.718-2.163h10.547l.717 2.163.718 2.163h1.739c1.344 0 1.738-.069 1.738-.303 0-.469-4.819-14.846-5.263-15.702zm25.305-.668c-.362-.506-1.092-1.147-1.623-1.424-.931-.485-1.146-.503-6.023-.498-4.419.004-5.17.054-5.937.398-1.011.454-2.215 1.715-2.459 2.575-.092.325-.167 3.948-.167 8.052v7.462h3.504l.062-2.65.061-2.65h5.261c5.76 0 6-.043 7.07-1.299.902-1.058 1.058-1.961.98-5.657-.072-3.367-.077-3.395-.729-4.31zm8.652 5.643V.79h-1.759c-1.206 0-1.793.085-1.865.27-.058.15-.079 4.31-.048 9.246l.057 8.976h3.505l.06-3.731.06-3.73 1.692.003 1.693.005 3.066 3.674c1.687 2.021 3.265 3.727 3.507 3.791.723.191 3.68.005 3.761-.236.041-.123-1.691-2.313-3.849-4.866-3.298-3.903-3.88-4.694-3.65-4.967l3.483-4.139c1.765-2.098 3.21-3.926 3.21-4.063 0-.175-.608-.23-2.026-.187l-2.026.062-3.16 3.73-3.161 3.732h-2.55zm-41.929-.007c.65-1.992 1.186-3.256 1.523-3.589.397-.391.76-.514 1.526-.514 1.506 0 1.872.492 3.05 4.103.551 1.692 1.003 3.164 1.003 3.272 0 .109-1.783.195-4.053.195s-4.052-.086-4.052-.195c0-.108.451-1.58 1.003-3.272zm20.682-.818c0-1.648.066-3.061.146-3.14.08-.08 2.247-.145 4.815-.145 2.983 0 4.185-.118 4.645.41.387.444.249 1.346.205 3.159l-.064 2.595-4.874.059-4.873.058V7.535z" fill="#1C1E34"/><path d="M92.893 16.668c0-.084.069-.153.154-.153h15.913c.085 0 .154.069.154.153v2.525a.153.153 0 01-.154.153H93.047a.153.153 0 01-.154-.153v-2.525z" fill="#0193C6"/><path fill-rule="evenodd" clip-rule="evenodd" d="M96.523.856c-2.005 0-3.63 1.605-3.63 3.585v6.18c0 1.979 1.624 3.584 3.63 3.584h8.96c2.005 0 3.631-1.605 3.631-3.585V4.44c0-1.98-1.626-3.584-3.631-3.584h-8.96zm-.233 3.092a.307.307 0 00-.309.305v6.56c0 .168.139.304.31.304h9.423a.307.307 0 00.309-.305V4.253a.307.307 0 00-.309-.305H96.29z" fill="#0193C6"/></svg>