<svg width="148" height="44" fill="none" xmlns="http://www.w3.org/2000/svg"><g clip-path="url(#clip0_109_3513)"><path d="M34.829 11.121h-5.936v21.725h5.936V11.121zm24.782 17.695c-2.54 3.068-5.843 4.591-9.977 4.591-1.733 0-3.303-.29-4.735-.85-1.432-.56-2.656-1.345-3.672-2.352a10.467 10.467 0 01-2.38-3.584c-.577-1.388-.854-2.911-.854-4.591 0-1.658.277-3.18.832-4.57a10.747 10.747 0 012.379-3.65 11.131 11.131 0 013.695-2.419c1.432-.582 3.002-.873 4.735-.873 1.94 0 3.741.313 5.404.94 1.663.628 3.049 1.725 4.204 3.293l-3.926 3.852a7.8 7.8 0 00-2.24-1.993c-.879-.493-1.872-.74-2.98-.74-.947 0-1.779.157-2.518.449-.739.313-1.363.716-1.87 1.276a5.386 5.386 0 00-1.155 1.904c-.278.717-.393 1.523-.393 2.352 0 .873.139 1.68.416 2.419.277.739.67 1.388 1.2 1.926a5.48 5.48 0 001.871 1.276c.717.314 1.548.448 2.426.448 1.293 0 2.355-.224 3.164-.672.808-.448 1.616-1.142 2.402-2.105l3.972 3.673zm12.357 4.545c-1.686 0-3.234-.29-4.643-.873-1.432-.582-2.656-1.366-3.695-2.374-1.04-1.008-1.848-2.218-2.425-3.606a11.952 11.952 0 01-.878-4.57c0-1.656.3-3.18.878-4.568a10.461 10.461 0 012.425-3.606 10.973 10.973 0 013.695-2.352c1.432-.56 2.98-.85 4.643-.85 1.686 0 3.233.29 4.665.85a10.971 10.971 0 013.696 2.352c1.039 1.008 1.824 2.217 2.425 3.606.577 1.41.877 2.934.877 4.569 0 1.657-.3 3.18-.877 4.569a10.459 10.459 0 01-2.425 3.606c-1.04 1.008-2.264 1.791-3.696 2.374-1.432.605-3.002.873-4.665.873zm0-5.397c.877 0 1.64-.157 2.332-.47a4.922 4.922 0 001.733-1.277 5.867 5.867 0 001.085-1.926c.254-.74.37-1.523.37-2.352s-.116-1.613-.37-2.352c-.254-.739-.6-1.388-1.085-1.926a4.921 4.921 0 00-1.733-1.277c-.692-.313-1.455-.47-2.332-.47-.878 0-1.64.157-2.333.47-.693.314-1.27.74-1.732 1.277a5.866 5.866 0 00-1.086 1.926 7.18 7.18 0 00-.37 2.352c0 .829.116 1.613.37 2.352.254.739.6 1.388 1.086 1.926.462.537 1.04.963 1.732 1.276.67.314 1.455.47 2.333.47zm11.779-16.843h6.49l5.035 15.118 4.689-15.118h6.351l-8.153 21.725h-6.282l-8.13-21.725zm24.921 0h16.121v4.995h-10.185v3.36h8.361v4.68h-8.361v3.718h10.878v4.972h-16.814V11.121zm19.909 0h9.262c1.201 0 2.309.157 3.279.448.971.314 1.802.761 2.495 1.344.693.605 1.224 1.344 1.617 2.24.369.895.577 1.926.577 3.09 0 1.434-.323 2.666-.97 3.718a7.258 7.258 0 01-2.587 2.531l4.804 8.332h-6.374l-3.788-7.391h-2.495v7.39H128.6V11.122h-.023zm8.684 9.81c.786 0 1.432-.224 1.917-.694.485-.47.739-1.098.739-1.882 0-.828-.23-1.478-.716-1.948-.461-.47-1.131-.717-1.986-.717h-2.864v5.24h2.91z" fill="#404040"/><path d="M34.829.08h-5.936v5.756h5.936V.08zM17.483 11.121H.97V16.9h12.31l-9.93 9.63 4.203 4.076 9.931-9.653v11.96h5.936V11.121h-5.936z" fill="#00B3E0"/></g><defs><clipPath id="clip0_109_3513"><path fill="#fff" transform="translate(.97 .08)" d="M0 0h146.062v43.495H0z"/></clipPath></defs></svg>