<svg width="176" height="38" fill="none" xmlns="http://www.w3.org/2000/svg"><path fill-rule="evenodd" clip-rule="evenodd" d="M36.59.19c-2.739.623-4.202 2.148-4.973 5.182-.447 1.758-.447 11.062 0 12.82 1.01 3.975 3.642 5.683 8.292 5.381 3.938-.255 5.839-2.447 6.01-6.93l.04-1.06-2.307-.05-2.308-.049-.125 1.375c-.166 1.831-.607 2.812-1.418 3.15-1.36.57-2.827-.295-3.267-1.924-.413-1.53-.617-6.148-.402-9.087.113-1.532.293-3.115.402-3.519.422-1.562 1.783-2.42 3.142-1.981.66.213 1.252 1.238 1.263 2.185.003.292.055.829.115 1.193l.11.663h4.55V6.427c0-3.02-1.326-5.182-3.713-6.06C40.92-.03 37.982-.127 36.59.19zM.812 11.768v11.505h4.773v-9.34l2.873-.062c3.428-.075 4.23-.333 5.53-1.78 1.181-1.313 1.556-2.702 1.457-5.396-.12-3.268-.956-4.827-3.142-5.857-.968-.456-.997-.459-6.232-.516L.812.264v11.504zm16.44.014v11.49H29.98v-3.528l-3.933-.048-3.933-.047v-6.541l3.58-.048 3.58-.048V9.484h-7.258l.05-2.784.048-2.785 3.845-.047 3.845-.048V.291H17.252v11.491zM47.562.512c-.046.122-.063 5.273-.038 11.447l.046 11.225 2.34.05 2.341.049.046-9.684.046-9.684 2.696-.048 2.695-.05v19.456h4.773V.291h-7.43c-5.781 0-7.449.048-7.514.22zm16.697.62c.183.461 1.534 3.842 3.003 7.513l2.67 6.675v7.953h4.773v-7.965l3.11-7.287c1.71-4.008 3.151-7.387 3.201-7.509.07-.17-.468-.22-2.359-.218l-2.45.003-1.752 4.69c-.963 2.578-1.799 4.717-1.856 4.752-.057.035-.854-2.076-1.771-4.692L69.161.29h-5.234l.332.84zm18.047 10.664V23.3l5.19-.059 5.189-.058 1.205-.619c.91-.467 1.347-.827 1.788-1.47.812-1.184.98-1.846 1.077-4.226.072-1.78.03-2.252-.3-3.339-.319-1.05-.54-1.42-1.3-2.17-1.331-1.314-2.102-1.551-5.38-1.656l-2.696-.086v-5.79h7.248V.291h-12.02v11.505zM103.287.42c-.061.1-3.993 14.252-6.264 22.543-.078.284.119.31 2.402.31h2.487l.156-.575c.086-.316 1.063-4.41 2.17-9.1 1.108-4.688 2.066-8.467 2.13-8.396.064.07.847 3.31 1.74 7.199s1.824 7.926 2.068 8.971l.445 1.9h5.125l-.11-.486c-.06-.267-1.443-5.418-3.074-11.446L109.597.38l-3.114-.048c-1.713-.027-3.151.013-3.196.088zm13.749.092c-.046.122-.064 5.273-.038 11.447l.045 11.225 3.288.048 3.287.048 2.988-7.809 2.989-7.809.088 7.761.088 7.761 2.166.05 2.165.05V.29h-3.074c-2.765 0-3.087.032-3.196.31-.066.17-1.435 3.85-3.041 8.176-1.607 4.326-2.993 7.942-3.081 8.034-.094.1-.159-3.229-.159-8.176V.291h-2.215c-1.609 0-2.238.06-2.3.221zm19.188 11.27v11.49h4.768l.047-5.867.046-5.868 2.725 5.868 2.724 5.867h2.623c1.443 0 2.625-.06 2.627-.132.003-.073-1.407-2.921-3.132-6.33l-3.136-6.197 3.057-4.914c1.681-2.703 3.098-5.026 3.15-5.161.079-.204-.35-.247-2.476-.247h-2.57l-2.796 4.9-2.796 4.899-.047-4.9-.047-4.899h-4.767v11.491zM159.051.866c-.101.316-1.508 5.386-3.129 11.266s-2.985 10.793-3.033 10.916c-.067.175.443.225 2.292.225h2.378l.671-2.564.67-2.563h6.478l.175.663c.096.365.388 1.518.648 2.563l.472 1.9h2.453c1.82 0 2.453-.055 2.453-.216 0-.12-1.37-5.29-3.045-11.49L165.489.29h-6.257l-.181.575zM9.291 4.136c.951.48 1.332 1.302 1.332 2.873 0 1.56-.386 2.515-1.223 3.025-.429.262-.892.332-2.18.333H5.585v-6.54h1.547c1.12 0 1.715.086 2.16.31zm155.035 10.342c.003.073-.989.132-2.204.132-1.228 0-2.21-.072-2.21-.162 0-.241 1.936-9.074 2.057-9.384.078-.202 2.329 8.787 2.357 9.414zm-73.612-.921c.906.559 1.37 1.695 1.283 3.138-.082 1.36-.376 2.058-1.085 2.584-.404.3-.815.381-2.166.43l-1.666.062v-6.575h1.526c1.226 0 1.64.07 2.108.36z" fill="#000"/><path d="M44.418 33.648c.384-.759.455-1.563.675-2.34.253-.894.463-1.8.679-2.693.075-.309.265-.433.706-.438 1.87-.02 1.87-.032 1.87 1.35 0 2.434-.026 4.868.021 7.302.01.557-.316.6-.884.58-.518-.018-1.029.076-.988-.563.064-1.18.029-2.361.02-3.542 0-.238.07-.488-.121-.728-.253.066-.174.228-.205.35-.336 1.328-.675 2.656-1 3.987-.091.378-.34.508-.869.505-.578 0-.602-.243-.683-.564-.375-1.518-.785-3.033-1.188-4.574-.283.186-.185.423-.187.634-.01 1.322-.022 2.646.012 3.966.01.424-.164.59-.725.53-.474-.054-1.129.194-1.129-.52.026-2.73.026-5.462 0-8.194 0-.41.21-.53.706-.504.538.026 1.13-.074 1.605.06.613.174.347.72.456 1.091.39 1.337.69 2.688 1.027 4.034.033.084-.03.206.202.27z" fill="#3CB7C8"/><path d="M30.994 33.355c.599-.836.81-1.755 1.224-2.619.348-.726.602-1.481.937-2.206.282-.618 1.003-.287 1.526-.326.522-.04.375.325.375.543.009 2.662.009 5.323 0 7.985 0 .211.149.514-.209.617a2.73 2.73 0 01-1.314.008c-.267-.06-.166-.305-.166-.472v-4.232c0-.203.076-.424-.164-.673-.239.513-.469.972-.665 1.44-.507 1.205-.988 2.416-1.499 3.619-.268.634-.988.312-1.513.342-.485.029-.405-.317-.405-.55 0-2.714.021-5.43-.02-8.148-.01-.642.51-.476.969-.503.517-.031.82.022.801.523-.052 1.392-.025 2.785-.021 4.178-.004.151-.099.32.144.474z" fill="#3CB6C8"/><path d="M19.22 31.948a398.738 398.738 0 00-1.524 3.57c-.215.503-.4 1.011-.618 1.513-.274.635-.988.317-1.509.351-.49.032-.424-.302-.424-.542 0-2.714 0-5.428-.012-8.142 0-.384.12-.53.665-.52 1.08.018 1.08 0 1.08.783v3.965c0 .131-.075.28.125.423.553-.614.677-1.332.988-1.994.424-.91.809-1.83 1.179-2.751.273-.68.998-.374 1.535-.4.59-.03.381.36.383.587.013 2.68.013 5.36 0 8.037 0 .202.101.483-.261.54-.424.067-.897.106-1.31-.03-.205-.07-.123-.288-.123-.443v-4.232c-.004-.204.066-.418-.173-.714zm132.2 1.588l1.803-4.22a8.44 8.44 0 01.181-.4c.358-.728.683-.858 1.707-.728.322.039.359.173.359.367v8.465c0 .306-.182.382-.565.392-1.178.028-1.181.036-1.18-.84v-3.966c0-.166.062-.343-.11-.555-.583.916-.847 1.869-1.27 2.781-.333.728-.583 1.481-.906 2.208-.273.614-.988.324-1.519.35-.505.026-.408-.31-.408-.544 0-2.714.017-5.429-.018-8.143-.009-.628.508-.489.977-.512.468-.023.776.014.759.494-.05 1.409-.024 2.82-.016 4.233.014.19-.084.415.206.618z" fill="#3BB6C8"/><path d="M59.58 37.629c-1.92.135-2.859-1.02-3.051-2.045-.055-.296-.116-.591-.153-.889-.049-.395.186-.605.736-.576.476.025 1.092-.156 1.09.5 0 .502.235.925.934 1.13.796.234 1.553-.1 1.623-.74a3.75 3.75 0 00.01-.53c-.017-.67-.294-.921-1.177-.897-.688.02-.886-.182-.814-.644a2.539 2.539 0 000-.37c0-.72 0-.73.96-.775a.932.932 0 00.457-.113.593.593 0 00.273-.298 1.28 1.28 0 00-.026-1.191c-.188-.352-.6-.488-1.093-.423-.526.066-.792.34-.892.716-.188.695-.553.87-1.48.71-.157-.026-.304-.03-.37-.188-.322-.768.58-2.48 1.597-2.869 1.653-.635 3.86-.132 4.226 1.481.233 1.026.247 1.997-.807 2.807-.188.145-.18.25.08.368.677.31.948.81.997 1.376a7.47 7.47 0 01-.021 1.48c-.14 1.142-1.24 2.108-3.098 1.98z" fill="#3DB7C9"/><path d="M13.072 32.754c0 1.357-.038 2.713.016 4.068.025.61-.424.571-.98.59-.579.021-.847-.063-.824-.568.055-.952 0-1.905.022-2.852.009-.403-.173-.555-.74-.543-1.638.037-1.472-.134-1.48 1.103 0 .775-.018 1.55.008 2.328.013.378-.14.536-.678.529-1.13 0-1.13.016-1.13-.816 0-2.606.026-5.214-.02-7.819-.015-.586.358-.6.94-.599.564 0 .946.016.898.58-.065.754 0 1.514-.026 2.27-.016.401.14.576.714.564 1.798-.036 1.48.167 1.507-1.101.013-.635.016-1.27-.008-1.905-.01-.29.117-.429.52-.395.164.013.33.013.493 0 .634-.06.82.095.792.61-.073 1.313-.024 2.636-.024 3.956z" fill="#44B9CA"/><path d="M121.174 32.738c0-1.323.019-2.645-.011-3.967-.009-.423.141-.602.744-.592 1.48.027 2.964.022 4.443 0 .532-.007.748.106.744.536a433.92 433.92 0 000 8.148c0 .592-.452.529-.963.545-.511.015-.815-.033-.806-.53.037-2.08 0-4.16.031-6.243.007-.492-.141-.684-.846-.667-1.501.037-1.502.01-1.502 1.115 0 1.887-.02 3.772.014 5.659.008.478-.098.704-.829.669-1.009-.049-1.013-.012-1.015-.656l-.004-4.017z" fill="#3CB7C8"/><path d="M91.586 32.709c0-1.392.01-2.783-.01-4.175 0-.274.152-.345.45-.345h5.007c.347 0 .423.14.423.373-.006 2.801-.006 5.603 0 8.405 0 .317-.184.423-.596.44-1.178.043-1.177.053-1.177-.814 0-2.026-.014-4.053.013-6.078 0-.423-.17-.544-.724-.54-1.595.014-1.595 0-1.595 1.2 0 1.905-.017 3.81.015 5.714 0 .436-.19.569-.73.523-.48-.04-1.078.142-1.062-.52.035-1.392.011-2.783.011-4.176l-.025-.007z" fill="#40B8C9"/><path d="M129.157 32.77c0-1.356.017-2.713-.01-4.068-.008-.382.112-.53.661-.524 1.385.027 2.771.027 4.157 0 .574-.01.714.159.706.56-.015 1.24 0 1.24-1.625 1.24-.539 0-1.08.007-1.62 0-.387-.005-.55.12-.544.413.034 1.693-.258 1.375 1.707 1.396 1.602.016 1.576 0 1.592 1.198.007.463-.184.628-.808.589-.624-.04-1.27 0-1.901-.01-.423-.007-.6.126-.588.441.063 1.917-.424 1.512 1.964 1.561h.071c1.932 0 1.927 0 1.787 1.464-.023.227-.091.367-.439.366h-4.651c-.518 0-.462-.263-.463-.51l.004-4.117zm-29.625-.016c0-1.356.018-2.713-.012-4.068-.01-.404.167-.515.685-.505 1.386.023 2.774.02 4.158 0 .529-.008.685.137.685.529 0 1.27.018 1.27-1.647 1.27h-1.412c-.141 0-.327-.032-.415.022-.641.397-.192.94-.295 1.411-.068.306.227.38.582.377.705-.005 1.411.009 2.117 0 .382-.006.555.093.548.396-.041 1.665.247 1.355-1.739 1.376-1.753.02-1.506-.141-1.521 1.163-.008.835 0 .835 1.115.836.706 0 1.412.016 2.118 0 .47-.014.593.123.595.463.012 1.375.026 1.375-1.78 1.375-1.01 0-2.021-.02-3.03.009-.603.019-.766-.156-.758-.584.024-1.358.006-2.71.006-4.07z" fill="#3AB6C8"/><path d="M2.208 31.72c.552-1.01 1.054-1.965 1.599-2.904.123-.212.106-.559.487-.596a9.209 9.209 0 011.687 0c.282.024.103.212.025.332-.706 1.091-1.383 2.19-2.117 3.27a.94.94 0 00-.206.543c-.007.19.05.38.166.55.802 1.343 1.553 2.703 2.33 4.054.167.292.075.44-.368.432H5.46c-1.3 0-1.28 0-1.694-.93-.481-1.058-1.004-2.102-1.527-3.192-.283.17-.2.371-.2.542 0 1.004-.035 2.01.013 3.011.023.492-.242.612-.83.575-.512-.033-1.037.093-1.029-.552.037-2.712.027-5.424 0-8.138 0-.423.2-.55.739-.537 1.27.027 1.084-.093 1.09.813v2.166c.006.167-.043.346.186.56z" fill="#3CB6C8"/><path d="M138.023 33.392c-.316.233-.113.446-.115.642 0 .968-.012 1.937 0 2.905 0 .341-.159.462-.618.467-1.184.016-1.183.03-1.183-.833 0-2.606.023-5.213-.018-7.82-.01-.567.352-.58.903-.571.523.007.967-.037.928.553-.064.92-.017 1.845-.017 2.83.258-.176.452-.398.564-.646.432-.834.891-1.66 1.329-2.494.079-.152.193-.243.408-.231.573.03 1.301-.19 1.665.105.206.17-.326.666-.548 1.008-.592.913-1.188 1.824-1.772 2.74a.666.666 0 00.015.719c.789 1.356 1.553 2.709 2.342 4.057.265.456.19.565-.462.577-1.375.024-1.382.026-1.867-.953-.401-.806-.778-1.619-1.176-2.426-.106-.206-.241-.402-.378-.629z" fill="#3BB6C8"/><path d="M115.197 32.94a4.16 4.16 0 00.525 2.28c.22.38.584.62 1.116.592.532-.029.802-.318.926-.691.074-.221.23-.436.239-.656.014-.355.224-.44.657-.442 1.137-.008 1.169.008 1.055.847a4.692 4.692 0 01-.606 1.67c-.801 1.423-3.679 1.448-4.723.275-.637-.718-.866-1.517-.988-2.334-.241-1.603-.192-3.208.458-4.754.363-.864.988-1.646 2.374-1.799 1.348-.151 2.563.414 3.077 1.427.238.516.376 1.055.409 1.6.027.28-.107.413-.512.434-1.074.05-1.073.06-1.366-.73-.031-.085-.055-.172-.092-.256-.15-.34-.424-.592-.928-.63-.503-.036-.846.187-1.048.506-.523.806-.58 1.683-.573 2.662z" fill="#3DB7C8"/><path d="M80.213 36.98c-.29.406-.795.114-1.183.2-.565.127-.658-.133-.821-.468-.22-.443-.308-.93-.706-1.324-.456-.203-.404-.6-.597-.903-.194-.303-.223-.674-.628-.926-.198.201-.16.413-.161.616v2.54c0 .245.053.529-.343.63a2.462 2.462 0 01-1.244-.011c-.274-.08-.17-.307-.17-.473v-4.28c0-1.285.025-2.572-.012-3.857-.013-.436.206-.542.737-.538 1.046.002 1.046-.014 1.046.768v2.01c0 .156-.06.387.15.43.314.066.296-.211.412-.347.461-.824.958-1.638 1.365-2.477.153-.33.386-.382.773-.382 1.553-.017 1.541-.024.875 1.004-.635.976-1.253 1.959-1.881 2.938a.436.436 0 00-.037.507c.936 1.406 1.522 2.924 2.425 4.342zm-29.771-.507c0-.142.012-.283 0-.424-.035-.349.037-.529.624-.408.524.106.723-.22.796-.563.123-.565-.212-1.077-.392-1.595-.565-1.611-1.206-3.207-1.827-4.806-.124-.317-.096-.486.446-.497 1.6-.03 1.612-.028 1.917 1.215.18.74.401 1.481.613 2.213.044.15.087.355.347.343.26-.012.176-.223.206-.346.225-.915.462-1.83.627-2.751.089-.492.327-.748 1.029-.668.188.012.377.012.564 0 .44-.007.535.087.415.446-.458 1.375-.837 2.773-1.257 4.16-.376 1.231-.743 2.464-1.165 3.686-.163.475-.63.823-1.218 1.043-.962.363-1.725-.109-1.725-1.048zm95.775-2.803c0 1.075-.029 2.152.014 3.226.023.514-.343.529-.837.505-.494-.023-1.002.106-.988-.514.031-2.098 0-4.195.03-6.293.008-.504-.22-.635-.847-.623-1.435.026-1.211.094-1.228-.93 0-.159.011-.317 0-.476-.032-.271.13-.377.488-.377h4.869c.069 0 .163-.015.207.013.634.404.171.945.296 1.415.072.27-.163.38-.509.365h-.071c-1.424.048-1.424.048-1.424 1.098v2.591zm-121.29.021c0 1.059-.021 2.117.011 3.175.013.406-.127.603-.705.539a4 4 0 00-.565 0c-.424.011-.577-.123-.565-.447a108.31 108.31 0 000-8.349c-.012-.3.134-.423.522-.418 1.223 0 2.458-.078 3.67.024 1.096.093.349.816.521 1.235.12.292.012.562-.554.54-.567-.022-1.13.015-1.694-.01-.501-.024-.654.125-.645.49.018 1.071.003 2.146.004 3.221z" fill="#3BB6C8"/><path d="M72.428 32.803c0 1.34-.017 2.68.011 4.02.009.424-.14.602-.745.592-1.117-.017-1.114.007-1.114-.82 0-2.658.012-5.315-.018-7.973 0-.38.17-.442.603-.439 1.513.012 1.252-.043 1.26.922.01 1.23.003 2.47.003 3.698zm-2.648-.286c.423.46.451.99.437 1.516-.02.768.153 1.548-.282 2.294-.357.623-.925 1.01-1.852 1.033-1.033.024-2.066.023-3.105.044-.424.009-.587-.121-.586-.438.007-2.802.007-5.605 0-8.408 0-.272.129-.363.491-.379 1.368-.062 1.368-.071 1.368.936 0 .617.02 1.234-.007 1.85-.017.392.182.53.706.516.79-.015 1.593-.029 2.258.4.282.179.512.362.575.641-.249.06-.406-.063-.554-.17-.564-.405-1.226-.536-1.998-.522-1.173.02-1.33-.12-1.34-1.01v-1.851c0-.3-.103-.517-.591-.51-.463.008-.528.228-.53.497v7.56c0 .356.2.51.675.504.706-.006 1.412-.018 2.117 0 1.412.043 2.054-.437 2.242-1.552.131-.774.192-1.582-.141-2.359-.1-.204-.105-.416.117-.592z" fill="#45B9CA"/><path fill-rule="evenodd" clip-rule="evenodd" d="M157.543 32.753l.003-1.113a90.19 90.19 0 00-.016-2.85c-.013-.452.141-.635.785-.612.603.024 1.208.019 1.815.014a62.5 62.5 0 01.867-.004c.958 0 1.552.27 1.864.964.463 1.035.553 2.07-.395 3.011-.219.212-.112.38.092.56 1.304 1.15 1.142 2.434.522 3.725-.244.509-.831.805-1.616.877-.683.063-1.367.064-2.051.064-.395 0-.79 0-1.184.013-.528.016-.696-.145-.691-.529.011-.916.009-1.831.006-2.747-.001-.458-.002-.915-.001-1.373zm1.802 1.791v-.053c0-1.047.312-1.235 1.652-.884.672.176.662.67.618 1.112-.074.74-1.23 1.193-2.094.828-.173-.073-.175-.197-.176-.317a31.374 31.374 0 010-.686zm-.005-3.86a.83.83 0 000 .157h.017l-.002.227c-.002.152-.004.303.002.455a.227.227 0 00.086.19.408.408 0 00.241.09c1.176.19 1.754-.183 1.664-1.088-.055-.565-.507-.765-1.516-.748-.599.01-.555.241-.51.474a.677.677 0 01.018.242z" fill="#3AB6C8"/><path fill-rule="evenodd" clip-rule="evenodd" d="M80.603 36.815c-.052.198-.175.22-.39.165-.212.056-.433.055-.653.054-.129-.001-.258-.002-.385.01-.452.045-.676-.098-.818-.416a10.214 10.214 0 01-.108-.258c-.107-.264-.215-.53-.393-.773-.015-.022-.028-.047-.041-.072-.052-.1-.108-.206-.333-.122l-.001.006c-.03.133-.059.267.053.39l.178.356c.13.258.26.517.38.778.145.314.363.491.867.473.894-.029 1.79-.022 2.681 0 .575.015.832-.17.832-.585.006-.282.081-.562.223-.823a.439.439 0 01.19-.214.683.683 0 01.32-.092c1.426-.136 1.65-.03 1.963.99.014.048.035.095.055.142.017.037.033.074.046.111.156.44.777.633 1.632.455.482-.1.37-.3.258-.498a.625.625 0 01-.096-.234 2.11 2.11 0 00-.089-.362 939.464 939.464 0 01-1.036-3.76 99.007 99.007 0 00-.26-.933 42.037 42.037 0 01-.647-2.473l-.025-.113c-.18-.834-.182-.841-1.371-.833h-.282c-.302-.013-.46.069-.518.318-.115.468-.247.937-.378 1.405-.077.273-.153.545-.226.817a979.38 979.38 0 00-1.628 6.09zm3.798-3.49c-.121-.676-.243-1.355-.688-1.984-.052.234-.107.468-.16.703-.132.57-.264 1.139-.363 1.706-.052.289.242.282.493.276l.101-.002c.05 0 .106.002.163.004.279.011.593.025.528-.31-.026-.13-.05-.262-.074-.394z" fill="#42B8CA"/><path fill-rule="evenodd" clip-rule="evenodd" d="M109.073 28.192c-.167.002-.333.004-.5.004l.003-.01h-1.694c-.391 0-.528.128-.515.424.112 2.78.106 5.562 0 8.342 0 .321.141.462.565.451.235-.012.47-.012.705 0 .424.034.578-.106.565-.423-.017-.4-.014-.8-.01-1.2l.003-.493c.004-.571-.041-.837.071-.96.13-.143.472-.092 1.35-.098 1.153-.009 1.848-.361 2.243-1.142.577-1.142.493-2.313.21-3.477-.17-.697-1.125-1.374-1.875-1.409a18.212 18.212 0 00-1.121-.009zm-.891 2.644a1.734 1.734 0 000 .367h.007v.841c.002.144.014.278.222.356a1.657 1.657 0 001.244-.024c.188-.082.346-.198.458-.338a.808.808 0 00.184-.462 9.166 9.166 0 000-.683c-.031-.745-.324-.899-1.425-.928-.764-.02-.729.277-.694.576a.912.912 0 01.004.295z" fill="#3EB7C9"/><path fill-rule="evenodd" clip-rule="evenodd" d="M168.785 29.234l-.243-.927c-.215-.135-.458-.126-.703-.116-.131.005-.262.01-.389-.007-.587-.072-.906.133-.966.55-.056.405-.173.8-.289 1.196-.054.181-.108.363-.155.545-.176.69-.37 1.378-.564 2.066-.194.69-.389 1.381-.565 2.075-.032.12-.054.245-.077.369-.054.293-.108.589-.274.853-.127.203-.151.418-.175.631-.022.204-.045.407-.158.599a.159.159 0 00.01.157.225.225 0 00.065.064.301.301 0 00.093.04c.477.098.98.105 1.461.02.251-.04.262-.195.272-.348a.569.569 0 01.034-.193l.051-.107c.091-.194.184-.39.163-.608-.023-.23.169-.345.461-.39 1.464-.224 1.887-.008 2.088 1.076.017.087.043.173.077.258.079.204.245.353.547.343.124-.004.25.005.377.013.316.02.633.041.916-.119a.231.231 0 00.095-.14.193.193 0 00-.04-.155c-.117-.207-.15-.427-.184-.646-.033-.215-.066-.43-.176-.633l-.267-.96c-.262-.944-.524-1.887-.779-2.835-.24-.89-.473-1.78-.706-2.671zm-.94 2.718l-.177-.715c-.328.552-.455 1.12-.581 1.683-.06.268-.12.535-.201.798-.091.313.221.422.565.357.079-.015.178-.014.279-.014.286.003.591.005.524-.35a34.073 34.073 0 00-.409-1.759z" fill="#3CB7C8"/><path fill-rule="evenodd" clip-rule="evenodd" d="M70.041 35.375c.082-.953.053-1.917-.262-2.857l.004.013c-.228-.042-.349-.17-.471-.3-.08-.085-.16-.17-.271-.234-.613-.344-1.283-.327-1.954-.31l-.327.006c-.489.006-.672-.136-.664-.5.008-.337.005-.674.002-1.011-.005-.475-.009-.948.017-1.422.025-.45-.278-.488-.731-.462a3.149 3.149 0 01-.226.002c-.326-.006-.621-.01-.621.43a634.1 634.1 0 010 8.03c0 .318.127.442.564.432a28.178 28.178 0 012.54 0c1.624.11 2.316-.82 2.4-1.817zm-3.79-1.183c-.007.07-.007.14 0 .211v.79c0 .126 0 .25.153.336.606.326 1.783-.041 1.909-.605a2.7 2.7 0 00.028-.635c-.015-.778-.255-.902-1.385-.944-.772-.032-.741.265-.71.567.01.096.02.193.005.28z" fill="#3CB6C8"/><circle cx="172.25" cy="4.044" r="3.556" fill="#3CB7C8"/></svg>