<svg width="199" height="52" fill="none" xmlns="http://www.w3.org/2000/svg"><path opacity=".4" d="M23.056 1.79h-5.71v5.505h5.71V1.79z" fill="#010101"/><path d="M23.056.902h-5.71v5.505h5.71V.902z" fill="#424242"/><path opacity=".4" d="M51.513 1.79h-5.71v5.505h5.71V1.791z" fill="#010101"/><path d="M51.513.902h-5.71v5.505h5.71V.902z" fill="#424242"/><path opacity=".4" d="M5.834 18.483H.308v10.654h9.21V23.81H5.834v-5.327z" fill="#010101"/><path d="M5.834 17.595H.308v10.654h9.21v-5.327H5.834v-5.327z" fill="#424242"/><path opacity=".4" d="M62.933 23.898h-3.684v5.328h3.684v5.327h5.526V23.898h-5.526z" fill="#010101"/><path d="M62.933 23.01h-3.684v5.328h3.684v5.327h5.526V23.011h-5.526z" fill="#424242"/><path opacity=".4" d="M51.42 12.8h-5.526V7.473H22.872V12.8h-5.526v5.328H11.82v22.285h5.526v5.328h5.526v5.327h5.526v-5.327h11.97v5.327h5.526v-5.327h5.525v-5.328h5.526V18.128H51.42V12.8zM28.396 29.581h-5.525v-6.215h5.526v6.215zm17.498.089H40.37v-6.215h5.526v6.215z" fill="#010101"/><path d="M51.42 11.912h-5.526V6.585H22.872v5.327h-5.526v5.328H11.82v22.285h5.526v5.328h5.526v5.327h5.526v-5.327h11.97v5.327h5.526v-5.327h5.525v-5.328h5.526V17.24H51.42v-5.328zM28.396 28.693h-5.525v-6.215h5.526v6.215zm17.498.089H40.37v-6.215h5.526v6.215z" fill="#424242"/><path d="M79.418 35.086V12.978h13.077v3.196h-9.854v6.304h9.854v3.196h-9.854v6.304h9.854v3.197l-13.078-.09zm13.077-12.608v-6.304h3.315v6.304h-3.315zm0 9.5v-6.304h3.315v6.304h-3.315zm10.13 3.197v-3.197h3.316V16.174h-3.316v-3.197h9.855v3.197h-3.316v15.804h3.316v3.197h-9.855zm16.577-3.197V16.174h3.315v15.804h-3.315zm3.315-15.716v-3.196h9.854v3.196h-9.854zm0 18.912v-3.196h9.854v3.196h-9.854zm9.762-3.196v-6.304h-6.539v-3.196h9.855v9.5h-3.316zm.092-12.608v-3.196h3.316v3.196h-3.316z" fill="#964298"/><path d="M143.885 32.245v-6.748h2.302v6.748h-2.302zm9.393 4.528v-2.22h-6.999v-2.22h6.999v-6.747h-6.999v-2.22h9.394v13.496l-2.395-.089zm-6.999 2.22v-2.22h6.999v2.22h-6.999zm11.881-6.748v-6.748h2.302v2.22h6.999v-2.22h2.303v4.528h-9.394v2.22h-2.21zm2.394-6.748v-2.22h6.999v2.22h-6.999zm-.092 9.056v-2.22h6.999v2.22h-6.999zm11.972-2.308v-6.748h2.302v2.22h7v-2.22h2.302v4.528h-9.394v2.22h-2.21zm2.302-6.748v-2.22h7v2.22h-7zm0 9.056v-2.22h7v2.22h-7zm11.973 0V18.75h2.302v9.056h4.697v2.22h-4.697v4.528h-2.302zm6.999-6.836v-2.22h2.303v2.22h-2.303zm0 4.528v-2.22h2.303v2.22h-2.303zm2.303-6.748v-2.22h2.302v2.22h-2.302zm0 9.056v-2.22h2.302v2.22h-2.302z" fill="#424242"/></svg>