<svg width="148" height="29" fill="none" xmlns="http://www.w3.org/2000/svg"><path fill-rule="evenodd" clip-rule="evenodd" d="M105.179.223c-1.561.51-2.524 1.808-2.517 3.393.008 1.931 1.649 3.5 3.66 3.5.333 0 .699-.022.812-.05.182-.043.245.008.517.418.171.257.392.566.493.688.18.217.18.222.019.34-.371.272-1.89.934-2.571 1.12a11.54 11.54 0 01-1.581.284c-.556.054-6.25.083-16.436.083H71.987v1.366h74.959v-1.36l-16.119-.028c-17.581-.03-16.425 0-17.92-.47-.563-.176-1.93-.791-2.22-.998-.161-.115-.16-.12.019-.338.1-.12.325-.428.499-.682.3-.438.33-.459.599-.416 1.774.283 3.392-.513 4.147-2.04.25-.506.265-.59.265-1.46 0-.871-.015-.956-.265-1.461a3.662 3.662 0 00-2.276-1.916c-1.382-.409-2.933.002-3.874 1.027l-.335.363-.334-.363c-.963-1.05-2.563-1.454-3.954-1zM15.684.442c-4.067.819-7.094 3.732-7.922 7.623-.093.437-.169 1.051-.169 1.365V10H.97v1.366l17.755-.02 17.754-.021.025-.663.024-.663h-8.696l-.098-.906a9.817 9.817 0 00-.699-2.79C25.767 3.257 22.818.967 19.426.397c-.997-.167-2.794-.145-3.742.046zm91.672 1.579c.233.138.49.387.642.623.625.969.07 2.4-1.046 2.697-1.291.344-2.508-.504-2.514-1.751-.003-.749.398-1.346 1.127-1.68a1.93 1.93 0 011.791.11zm6.117-.065a1.8 1.8 0 01.428 2.958c-.983.894-2.549.573-3.09-.632-.702-1.563 1.066-3.106 2.662-2.326zm-93.791.239c1.502.38 2.77 1.07 3.85 2.098 1.426 1.357 2.277 3.116 2.4 4.963l.048.743H9.33l.052-.703c.076-1.016.327-1.867.847-2.872.834-1.609 2.026-2.773 3.654-3.567 1.455-.71 2.357-.903 4.024-.856.779.021 1.333.082 1.776.194zm90.187 3.796c.194.204.353.397.353.43 0 .106-.693 1.008-.776 1.008-.093 0-.361-.31-.62-.716l-.181-.282.39-.42c.215-.232.411-.414.436-.405.024.008.204.182.398.385zm.076 3.667l.474.301-.472.024c-.26.013-.707.013-.994 0l-.521-.024.455-.296c.25-.163.484-.299.519-.301.035-.003.278.13.539.296zm-79.88 5.137c-1.628.26-3.27 1.511-3.76 2.863-.317.877-.386 1.58-.385 3.95.001 3.283.215 4.177 1.261 5.26.604.624 1.248 1.024 2.125 1.318.636.214.828.241 1.722.246 1.178.006 1.665-.092 2.617-.526.841-.383 1.691-1.15 2.102-1.894.492-.891.618-1.543.667-3.46l.045-1.707H31.07v2.169h2.624l-.046.633c-.106 1.48-.923 2.326-2.323 2.403-.348.02-.79-.006-.985-.056-.526-.137-1.035-.55-1.309-1.063-.221-.415-.244-.549-.328-1.903-.105-1.702.007-3.913.229-4.523.326-.897 1.118-1.383 2.248-1.379.553.002.727.038 1.128.235.544.266.949.723 1.17 1.319l.147.398h2.728v-.186c0-.103-.061-.383-.135-.623a4.948 4.948 0 00-3.767-3.408c-.537-.11-1.886-.146-2.387-.066zm21.665.092c-.985.278-1.785.905-2.146 1.683-.22.473-.305 1.694-.15 2.157.168.508.477 1.055.87 1.544l.369.46-.643.484c-1.517 1.142-2.105 2.553-1.743 4.182.426 1.918 1.777 2.91 4.166 3.054 1.356.082 2.625-.253 3.583-.946l.447-.323.162.186a39 39 0 01.479.564l.316.378 1.664.004 1.664.003-.364-.417c-.2-.23-.736-.835-1.19-1.346-.454-.51-.843-.97-.864-1.019-.022-.05.11-.295.293-.545.183-.25.43-.686.547-.968.245-.584.556-1.956.556-2.446v-.33h-2.404l-.13.762c-.123.726-.43 1.5-.61 1.54-.087.018-2.264-2.44-2.264-2.556 0-.036.339-.31.753-.608 1.228-.886 1.606-1.514 1.583-2.632-.025-1.267-.839-2.349-2.097-2.79-.686-.24-2.129-.278-2.847-.075zM.97 21.567v6.758l3.584-.024c3.554-.024 3.588-.026 4.087-.217 1.513-.577 2.324-1.605 2.511-3.182.074-.618-.07-1.474-.34-2.02-.226-.458-.82-1.082-1.216-1.278-.133-.066-.24-.146-.239-.178.002-.032.151-.157.333-.277.764-.506 1.257-1.507 1.257-2.552 0-1.81-.921-3.003-2.767-3.583-.406-.127-.866-.148-3.836-.175l-3.375-.03v6.758zm14.023-.058c-1.395 3.678-2.537 6.715-2.537 6.75 0 .034.648.052 1.44.04l1.44-.022.39-1.125.392-1.125 2.51-.021 2.51-.021.402 1.166.403 1.166h1.466c.807 0 1.448-.03 1.425-.066-.024-.035-1.175-3.038-2.56-6.671-1.385-3.634-2.54-6.641-2.567-6.683-.027-.043-.527-.077-1.114-.077H17.53l-2.536 6.689zm56.91-6.605c0 .046.831 3.062 1.846 6.7a906.454 906.454 0 011.844 6.667c0 .028.535.04 1.188.028l1.187-.022 1.263-3.995c.695-2.197 1.287-3.969 1.315-3.937.029.032.613 1.84 1.299 4.017l1.247 3.959 1.173-.022 1.173-.022 1.824-6.508a1344.92 1344.92 0 001.876-6.73l.053-.223-1.448.022-1.448.022-1.088 4.218c-.897 3.474-1.101 4.175-1.16 3.977-.038-.133-.611-2.031-1.273-4.218L81.57 14.86l-1.04-.022-1.04-.023-1.252 4.144c-.688 2.28-1.273 4.158-1.3 4.174-.027.016-.498-1.73-1.046-3.88a793.86 793.86 0 00-1.07-4.172l-.075-.261h-1.422c-.937 0-1.421.028-1.421.084zm18.968 6.602c-1.395 3.68-2.536 6.717-2.535 6.75.001.034.64.06 1.418.06h1.417l.418-1.144.419-1.145 2.506-.021 2.506-.021.402 1.166.403 1.166h1.42c1.082 0 1.417-.024 1.413-.1-.003-.056-1.145-3.084-2.538-6.73l-2.533-6.627-1.09-.022-1.089-.023-2.537 6.69zm11.973.062v6.749h9.139v-2.33h-6.373V14.82h-2.766v6.748zm11.57 0v6.749h9.14v-2.33h-6.373V14.82h-2.767v6.748zm11.376-6.695c-.031.03-.056 3.066-.056 6.749v6.695h9.307v-2.33h-6.456v-3.294h5.534v-2.33h-5.534V17.23h6.456v-2.41h-4.598c-2.528 0-4.623.024-4.653.053zm11.095 1.152v1.205h3.69v11.087h2.767V17.23h3.689v-2.41h-10.146v1.205zm-83.16.972c.258.132.486.566.487.924 0 .43-.247.772-.855 1.182-.557.376-.556.376-1.073-.366-.26-.372-.336-.558-.336-.821 0-.437.285-.853.674-.986.306-.105.83-.073 1.102.067zm-46.525.35c.418.142.634.333.822.726.303.632.113 1.523-.398 1.864-.448.299-.766.346-2.35.346H3.737V17.23l1.572.003c1.106.003 1.668.036 1.892.113zm13.138 6.33c0 .033-.755.06-1.677.06-1.197 0-1.677-.026-1.677-.091 0-.073 1.405-4.006 1.645-4.604.045-.112.296.514.886 2.208.453 1.3.823 2.392.823 2.426zm75.882 0c0 .033-.755.06-1.677.06-1.312 0-1.677-.022-1.677-.103 0-.08 1.426-4.096 1.647-4.637.04-.098 1.707 4.472 1.707 4.68zm-43.35-.56l1.375 1.564c.76.861.77.796-.196 1.245-.464.216-.629.25-1.173.246-.95-.007-1.58-.336-1.955-1.019-.251-.457-.252-1.248-.002-1.705.166-.302 1.052-1.165 1.183-1.15.03.002.377.371.769.819zm-45.604-.331c.731.237 1.082.725 1.082 1.505 0 .569-.099.852-.404 1.16-.46.466-.58.492-2.468.522l-1.74.028v-3.308H5.36c1.004 0 1.73.035 1.907.093z" fill="#404040"/></svg>