<svg width="126" height="32" fill="none" xmlns="http://www.w3.org/2000/svg"><path fill-rule="evenodd" clip-rule="evenodd" d="M4.188 8.34c2.067 0 3.743-1.66 3.743-3.707 0-2.048-1.676-3.708-3.743-3.708S.445 2.585.445 4.633c0 2.047 1.676 3.707 3.743 3.707zM.886 31.328h6.268V10.566H.886v20.762zm11.75-9.121H23.49v-4.378H12.635v4.378zm15.543 1.203v6.337c1.158.57 2.393.97 3.666 1.189 1.468.268 2.959.399 4.452.392 1.456.008 2.91-.137 4.336-.432a10.55 10.55 0 003.605-1.44 7.252 7.252 0 002.453-2.607 8.077 8.077 0 00.9-3.993 8.044 8.044 0 00-.514-3.014 7.094 7.094 0 00-1.49-2.31 10.843 10.843 0 00-2.332-1.811 24.842 24.842 0 00-3.062-1.514 37.65 37.65 0 01-2.243-1 12.207 12.207 0 01-1.694-.986 4.34 4.34 0 01-1.07-1.074 2.227 2.227 0 01-.373-1.277c-.006-.416.11-.824.332-1.176a2.98 2.98 0 01.955-.898c.47-.273.98-.471 1.511-.588a8.964 8.964 0 011.985-.203c.56.004 1.12.042 1.674.115.6.083 1.192.205 1.775.365a13.05 13.05 0 011.742.628 9.646 9.646 0 011.558.872V3.066a15.331 15.331 0 00-3.17-.824 26.1 26.1 0 00-3.938-.264 18.299 18.299 0 00-4.289.48 11.083 11.083 0 00-3.564 1.514A7.604 7.604 0 0028.951 6.6a7.66 7.66 0 00-.887 3.81 7.362 7.362 0 001.633 4.825 12.367 12.367 0 004.973 3.384c.874.358 1.687.71 2.44 1.054.682.298 1.338.655 1.958 1.068.5.324.941.734 1.3 1.21.317.427.483.947.475 1.479.005.4-.098.795-.298 1.142a2.63 2.63 0 01-.901.912c-.468.28-.978.483-1.511.601a9.286 9.286 0 01-2.114.216 12.225 12.225 0 01-7.84-2.891zm30.573 7.918a9.333 9.333 0 004.187-.73v-4.634a4.223 4.223 0 01-2.046.574c-1.68.002-2.52-1.054-2.52-3.169V15.18h4.566v-4.614h-4.567V4.41l-6.254 1.783v4.372h-3.293v4.614h3.293v9.284c.005 4.576 2.216 6.864 6.634 6.864zm12.97-.615c1.372.488 2.827.697 4.281.615a11.082 11.082 0 008.131-2.925 10.72 10.72 0 002.968-7.98 10.076 10.076 0 00-2.88-7.513 10.807 10.807 0 00-7.94-2.837 11.426 11.426 0 00-8.159 2.837 10.296 10.296 0 00-3.015 7.871 10.273 10.273 0 002.906 7.71 10.937 10.937 0 003.708 2.222zm2.535-15.5a4.2 4.2 0 011.909-.35c3.031-.002 4.547 1.892 4.547 5.682-.003 3.995-1.505 5.993-4.506 5.993-3.153 0-4.73-1.946-4.73-5.838a6.73 6.73 0 011.233-4.317 4.188 4.188 0 011.547-1.17zm27.535.873a5.451 5.451 0 012.643.615v-5.764a4.129 4.129 0 00-1.552-.236 5.437 5.437 0 00-3.403 1.125 5.41 5.41 0 00-1.956 2.996h-.082V11.06h-6.267v20.269h6.267v-9.682a6.523 6.523 0 011.152-4.067 3.82 3.82 0 013.198-1.493zm10.408 6.398h13.261v-2.635a10.143 10.143 0 00-2.433-7.148 8.904 8.904 0 00-6.877-2.628 9.806 9.806 0 00-7.224 2.945 10.818 10.818 0 00-2.94 8 10.246 10.246 0 00.582 4.07 10.279 10.279 0 002.135 3.517 10.322 10.322 0 007.643 2.723 15.548 15.548 0 007.325-1.5v-4.513a10.927 10.927 0 01-5.895 1.58c-3.508-.001-5.367-1.472-5.577-4.411zm3.91-8.196c2.358.003 3.537 1.453 3.537 4.352h-7.487a5.657 5.657 0 011.341-3.108 3.37 3.37 0 012.609-1.243z" fill="#404040"/></svg>