<svg width="106" height="32" fill="none" xmlns="http://www.w3.org/2000/svg"><path d="M17.261 20.112v11.144h-5.229V1.862c4.617-.649 9.22-1.239 13.776.226a8.082 8.082 0 014.069 2.847 8.345 8.345 0 011.687 4.73c.235 4.23-1.663 7.633-5.246 9.27-2.81 1.298-5.774 1.551-9.057 1.177zm.075-4.486c3.423.912 6.645.076 8.084-2.054 1.102-1.645 1.102-4.514-.024-6.055-1.36-1.908-4.817-2.626-8.063-1.64l.003 9.749zm71.449 15.67h-5.07V20.85c0-1.04.028-2.081-.071-3.122-.221-2.377-1.538-3.834-3.508-3.997a4.297 4.297 0 00-2.96.844A4.452 4.452 0 0075.5 17.2a14.942 14.942 0 00-.235 3.098c-.027 3.626 0 7.251 0 10.98h-5.25V9.869h4.328l.405 2.86a27.339 27.339 0 012.065-1.898c4.709-3.508 11.19-1.17 11.86 4.7.589 5.174.113 10.45.113 15.766zM55.39 19.74c-.04 5.739-3.946 10.436-9.604 11.55-5.16 1.02-10.764-2.227-12.7-7.359a12.072 12.072 0 01-.183-8.062 11.814 11.814 0 014.919-6.315c1.099-.694 2.136-.99 2.953.256.816 1.246.14 2.082-.977 2.776-2.793 1.766-4.12 4.365-3.878 7.726.221 3.099 1.82 5.316 4.494 6.655a7.904 7.904 0 005.707.452 8.066 8.066 0 004.558-3.533c2.123-3.563 1.207-8.205-2.147-10.849-.313-.246-.66-.448-.98-.694-.86-.642-1.116-1.46-.527-2.404.588-.944 1.405-1.18 2.47-.635 3.494 1.793 5.923 6.047 5.896 10.436zm40.091-5.841l-2.922-.187V9.836l2.721-.184c.167-1.388-.129-3.247.575-3.816 1.188-.954 3.011-1.09 4.787-1.638v5.517h5.063v4.02h-4.882c0 3.883-.086 7.557.037 11.228.054 1.596 1.109 2.46 2.763 2.38.558-.024 1.115 0 1.65 0 .078.132.177.222.187.323.34 3.927.03 4.257-3.892 4.163-3.546-.09-5.75-2.081-5.958-5.749-.19-3.4-.098-6.814-.129-10.224-.003-.628 0-1.25 0-1.957zM64.118 31.315H58.93V9.877h5.188v21.438zM.705 9.85h5.154v21.428H.705V9.851z" fill="#404040"/><path d="M45.556 11.99v7.286c0 1.239-.442 2.044-1.749 2.02-1.177-.025-1.701-.743-1.701-1.909V4.645c0-1.134.463-1.929 1.677-1.94 1.28 0 1.786.75 1.776 2.003-.017 2.425-.003 4.854-.003 7.282zm18.986-8.187c-.034 1.63-1.306 2.807-3.045 2.807-1.701 0-2.974-1.246-2.977-2.873a3.153 3.153 0 01.906-2.173c.57-.575 1.337-.9 2.139-.904a3.08 3.08 0 012.103.966c.554.585.867 1.364.874 2.177zM3.287.787c1.701 0 2.98 1.239 3.011 2.87.03 1.734-1.276 2.97-3.1 2.952a2.8 2.8 0 01-1.12-.21 2.844 2.844 0 01-.95-.641 2.91 2.91 0 01-.627-.97 2.955 2.955 0 01-.205-1.142C.327 1.966 1.56.78 3.287.787z" fill="#404040"/></svg>