<svg width="134" height="44" fill="none" xmlns="http://www.w3.org/2000/svg"><g clip-path="url(#clip0_109_3489)"><path fill-rule="evenodd" clip-rule="evenodd" d="M4.965 40.877c0 1.194-1.015 2.16-2.26 2.16-1.244 0-2.259-.964-2.259-2.16V28.123c0-1.193 1.01-2.16 2.26-2.16 1.25 0 2.259.965 2.259 2.16v12.754zm.444-19.271c0 1.428-1.21 2.587-2.706 2.587C1.21 24.193 0 23.03 0 21.603c0-1.429 1.21-2.587 2.703-2.587 1.494 0 2.706 1.159 2.706 2.586v.004zm20.429-2.305h-5.932s-11.905.985-11.905 11.574c0 10.06 10.173 11.761 11.31 11.761h7.559s1.803-.058 1.803-1.973c0-1.913-1.665-1.876-1.964-1.876h-7.113s-7.076-.577-7.076-7.817 7.41-7.7 7.631-7.7h5.928c.258 0 1.89 0 1.89-1.95 0-1.944-1.647-2.013-2.139-2.013l.008-.006zm16.567 17.573c-2.148 2.786-4.097 2.385-4.595 2.385-.492 0-2.891-.147-2.593-2.058.297-1.913 2.445-1.843 2.445-1.843h4.867c.198 1.111-.124 1.51-.124 1.51v.006zm4.62 3.82v-8.856s-.498-6.164-8.16-6.164h.153s-5.993-.247-6.403 2.695c0 0-.149 1.735 1.927 1.735 0 0 .29.123.928-.106 0 0 3.186-1.417 5.928 0 0 0 1.187.708 1.187 1.805H37.25s-5.855.036-6.223 5.208c-.373 5.173 5.779 5.913 5.779 5.913s2.22.392 4.04-.635l1.813-1.03S42.732 43 44.919 43c2.186 0 2.112-2.303 2.112-2.303l-.006-.002zm14.886-10.861h-6.72s-1.034 0-1.034.851c0 .85.911 1.038.911 1.038s4.817 1.252 5.73 1.582c.916.33 3.754 1.252 3.754 4.606s-3.21 4.723-5.199 4.723h-7.417s-2-.117-2-1.867c0-1.747 1.78-1.842 1.78-1.842h7.459s1.06 0 1.06-1.135c0-1.13-2.814-1.534-2.99-1.556-.172-.026-3.83-.686-5.137-1.724-1.31-1.038-2.173-2.151-2.173-3.9 0-1.746 1.11-4.108 4.518-4.58h7.536s1.754.073 1.754 1.841c0 1.776-1.604 1.963-1.828 1.963h-.004zm37.965 0h-6.72s-1.038 0-1.038.851c0 .85.915 1.038.915 1.038s4.817 1.252 5.73 1.582c.914.33 3.753 1.252 3.753 4.606s-3.209 4.723-5.196 4.723h-7.429s-2.002-.117-2.002-1.867c0-1.747 1.78-1.842 1.78-1.842h7.46s1.064 0 1.064-1.135c0-1.13-2.818-1.534-2.99-1.556-.173-.026-3.83-.686-5.14-1.724-1.311-1.038-2.174-2.151-2.174-3.9 0-1.746 1.11-4.108 4.518-4.58h7.536s1.756.073 1.756 1.841c0 1.776-1.608 1.963-1.83 1.963h.007zM71.961 32.67s.594-3.214 4.47-3.214c3.877 0 4.47 3.213 4.47 3.213h-8.942l.002.002zm13.14.945c-.741-7.89-8.448-7.89-8.448-7.89-8.893 0-9.285 8.41-9.285 8.41 0 5.148 3.9 8.879 9.63 8.879 5.733 0 6.376-2.314 6.376-3.069 0-.755-.942-2.694-3.364-1.561-2.42 1.135-3.211.855-3.211.855-4.346 0-4.886-3.259-4.886-3.259H82.88c2.253 0 2.225-2.361 2.225-2.361" fill="#404040"/><path d="M105.595 13.132c0-1.105.937-2.001 2.093-2.001s2.094.896 2.094 2c0 2.45 1.049 4.678 2.739 6.294a9.512 9.512 0 006.582 2.62 9.513 9.513 0 006.583-2.62c1.69-1.616 2.74-3.844 2.74-6.293 0-1.105.936-2.001 2.093-2.001 1.156 0 2.093.896 2.093 2 0 3.555-1.519 6.784-3.967 9.124-2.447 2.34-5.824 3.793-9.542 3.793-3.717 0-7.094-1.453-9.542-3.793-2.447-2.34-3.966-5.569-3.966-9.123z" fill="#499831"/><path d="M121.867 4.636c-1.102-.324-1.72-1.44-1.382-2.494.339-1.054 1.506-1.645 2.609-1.321 3.552 1.051 6.331 3.393 7.944 6.319 1.613 2.925 2.066 6.436.968 9.828-.34 1.054-1.507 1.645-2.609 1.321-1.101-.323-1.72-1.44-1.382-2.493.759-2.343.445-4.77-.672-6.796-1.117-2.023-3.032-3.64-5.476-4.364z" fill="#A9DB44"/><path d="M111.888 6.629c0 1.336-1.133 2.42-2.531 2.42-1.397 0-2.53-1.084-2.53-2.42 0-1.336 1.133-2.42 2.53-2.42 1.398 0 2.531 1.084 2.531 2.42z" fill="#9CC244"/><path d="M115.118 25.49c-1.102-.324-1.72-1.441-1.382-2.495.338-1.053 1.507-1.645 2.608-1.32a9.688 9.688 0 007.107-.644c2.116-1.067 3.809-2.898 4.565-5.235.338-1.054 1.507-1.645 2.608-1.321 1.102.323 1.721 1.44 1.382 2.493-1.1 3.398-3.549 6.054-6.608 7.597a14.013 14.013 0 01-10.28.924z" fill="#006B34"/><path d="M111.888 6.629c0 1.336-1.133 2.42-2.531 2.42-1.397 0-2.53-1.084-2.53-2.42 0-1.336 1.133-2.42 2.53-2.42 1.398 0 2.531 1.084 2.531 2.42z" fill="#8DBD2D"/></g><defs><clipPath id="clip0_109_3489"><path fill="#fff" transform="translate(0 .8)" d="M0 0h134v42.458H0z"/></clipPath></defs></svg>