<svg width="21" height="17" viewBox="0 0 21 17" fill="none" xmlns="http://www.w3.org/2000/svg">
<path d="M1.91188 4.99426C1.91188 4.03731 1.91294 3.36992 1.98068 2.86638C2.04648 2.37725 2.16683 2.11822 2.35145 1.9337C2.53611 1.74914 2.7954 1.62881 3.28494 1.56303C3.78884 1.49532 4.45667 1.49426 5.41413 1.49426H15.4198C16.3772 1.49426 17.0451 1.49532 17.549 1.56303C18.0385 1.62881 18.2978 1.74914 18.4824 1.9337C18.6671 2.11822 18.7874 2.37725 18.8532 2.86638C18.9209 3.36992 18.922 4.03731 18.922 4.99426V13.4943H1.91188V4.99426Z" stroke="#3485F3"/>
<path d="M2.07892 13.4943C1.43465 13.4943 0.91188 14.0163 0.91188 14.6609C0.91188 15.6737 1.73329 16.4943 2.74596 16.4943H18.0879C19.1006 16.4943 19.922 15.6737 19.922 14.6609C19.922 14.0163 19.3992 13.4943 18.755 13.4943H2.07892Z" stroke="#3485F3"/>
</svg>
