<svg width="13" height="21" viewBox="0 0 13 21" fill="none" xmlns="http://www.w3.org/2000/svg">
<path d="M1.6468 1.9233C1.24531 2.32456 1.0726 2.82983 0.991867 3.42996C0.914114 4.00795 0.914125 4.74285 0.914138 5.65456L0.914139 5.69116V15.6912L0.914138 15.7278C0.914125 16.6395 0.914114 17.3744 0.991867 17.9524C1.0726 18.5525 1.24531 19.0578 1.6468 19.459C2.04825 19.8603 2.5537 20.0328 3.15402 20.1135C3.73229 20.1912 4.46756 20.1912 5.37983 20.1912H5.41639H7.41752H7.45408C8.36635 20.1912 9.10162 20.1912 9.67988 20.1135C10.2802 20.0328 10.7857 19.8603 11.1871 19.459C11.5886 19.0578 11.7613 18.5525 11.842 17.9524C11.9198 17.3744 11.9198 16.6395 11.9198 15.7277V15.6912V5.69116V5.65458C11.9198 4.74286 11.9198 4.00796 11.842 3.42996C11.7613 2.82983 11.5886 2.32456 11.1871 1.9233C10.7857 1.52207 10.2802 1.34951 9.67988 1.26884C9.10162 1.19114 8.36635 1.19115 7.45408 1.19116L7.41752 1.19116H5.41639L5.37982 1.19116C4.46755 1.19115 3.73229 1.19114 3.15402 1.26884C2.5537 1.34951 2.04825 1.52207 1.6468 1.9233Z" stroke="#3485F3"/>
<path d="M1.41414 14.6912H11.4198" stroke="#3485F3"/>
</svg>
