<svg width="19" height="20" viewBox="0 0 19 20" fill="none" xmlns="http://www.w3.org/2000/svg">
<path d="M11.9119 19.3077V14.3077C11.9119 13.7554 11.4642 13.3077 10.9119 13.3077H7.9119C7.35961 13.3077 6.9119 13.7554 6.9119 14.3077V19.3077" stroke="#3485F3" stroke-linecap="round" stroke-linejoin="round"/>
<path d="M2.4119 9.30768V15.3077C2.4119 17.1933 2.4119 18.1361 2.99768 18.7219C3.58347 19.3077 4.52628 19.3077 6.4119 19.3077H12.4119C14.2975 19.3077 15.2403 19.3077 15.8261 18.7219C16.4119 18.1361 16.4119 17.1933 16.4119 15.3077V9.30768" stroke="#3485F3"/>
<path d="M2.03316 2.82261C2.21505 2.09505 2.306 1.73127 2.57726 1.51947C2.84852 1.30768 3.2235 1.30768 3.97345 1.30768H14.8503C15.6003 1.30768 15.9753 1.30768 16.2465 1.51947C16.5178 1.73127 16.6087 2.09505 16.7906 2.82261L17.9942 7.63706C18.0911 8.02443 18.1395 8.21812 18.1288 8.37544C18.1011 8.78337 17.8279 9.13334 17.4388 9.25916C17.2888 9.30768 17.0845 9.30768 16.676 9.30768V9.30768C16.1428 9.30768 15.8763 9.30768 15.6524 9.25552C15.0251 9.1094 14.5067 8.67017 14.2594 8.07549C14.1712 7.86323 14.1283 7.60623 14.0427 7.09225V7.09225C14.0187 6.94844 14.0067 6.87654 13.9931 6.85762C13.9532 6.80207 13.8706 6.80207 13.8307 6.85762C13.8171 6.87654 13.8051 6.94844 13.7811 7.09225L13.6996 7.58149C13.6909 7.63335 13.6866 7.65929 13.6823 7.682C13.5058 8.60819 12.7065 9.28534 11.7639 9.30714C11.7408 9.30768 11.7145 9.30768 11.6619 9.30768V9.30768C11.6093 9.30768 11.583 9.30768 11.5599 9.30714C10.6173 9.28534 9.81796 8.60819 9.64149 7.682C9.63716 7.65929 9.63284 7.63335 9.6242 7.58149L9.54266 7.09225C9.51869 6.94844 9.50671 6.87654 9.49311 6.85762C9.45322 6.80207 9.37058 6.80207 9.33068 6.85762C9.31709 6.87654 9.3051 6.94844 9.28113 7.09225L9.19959 7.58149C9.19095 7.63335 9.18663 7.65929 9.1823 7.682C9.00583 8.60819 8.20648 9.28534 7.26389 9.30714C7.24077 9.30768 7.21448 9.30768 7.1619 9.30768V9.30768C7.10931 9.30768 7.08302 9.30768 7.0599 9.30714C6.11731 9.28534 5.31796 8.60819 5.14149 7.682C5.13716 7.65929 5.13284 7.63335 5.1242 7.58149L5.04266 7.09225C5.01869 6.94844 5.00671 6.87654 4.99311 6.85762C4.95322 6.80207 4.87058 6.80207 4.83068 6.85762C4.81709 6.87654 4.8051 6.94844 4.78113 7.09225V7.09225C4.69547 7.60623 4.65264 7.86323 4.56438 8.07549C4.31714 8.67017 3.79864 9.1094 3.17141 9.25552C2.94752 9.30768 2.68095 9.30768 2.14781 9.30768V9.30768C1.73926 9.30768 1.53499 9.30768 1.38496 9.25916C0.995927 9.13334 0.722675 8.78337 0.69497 8.37544C0.684286 8.21812 0.732708 8.02443 0.82955 7.63706L2.03316 2.82261Z" stroke="#3485F3"/>
</svg>
