<svg width="114" height="26" viewBox="0 0 114 26" fill="none" xmlns="http://www.w3.org/2000/svg">
<path d="M9.12425 7.40405C7.22646 7.40405 5.39569 7.73113 3.97909 8.38348C2.62486 9.0122 0.22168 11.0192 0.22168 14.827V25.3608H4.71066V15.8219C4.71066 15.3221 4.78605 13.8294 4.85306 13.4378C5.26166 11.4944 6.71548 11.031 8.87015 11.031C9.08515 11.031 9.34576 11.0419 9.60358 11.0601L10.6488 7.51126C10.2812 7.43585 9.56542 7.40405 9.12425 7.40405Z" fill="black"/>
<path d="M96.5443 7.40405C94.6502 7.40405 92.8157 7.73113 91.4029 8.38348C90.0524 9.01311 87.6445 11.0201 87.6445 14.8279V25.3617H92.1307V15.8219C92.1307 15.3221 92.2042 13.8294 92.2768 13.4378C92.6799 11.4944 94.1421 11.031 96.2921 11.031C96.508 11.031 96.764 11.0419 97.0311 11.0601L98.0689 7.51126C97.7012 7.43585 96.9883 7.40405 96.5443 7.40405Z" fill="#E83587"/>
<path d="M48.8438 11.1597C45.5666 9.91947 44.1342 9.07088 44.1342 7.23105C44.1342 5.84731 45.373 4.36272 48.222 4.36272C50.5256 4.36272 52.2466 5.03597 53.1224 5.49479L54.2142 1.98684C52.9418 1.35267 50.9668 0.780273 48.2937 0.780273C42.9717 0.780273 39.6015 3.75671 39.6015 7.65171C39.6015 11.0852 42.2001 13.1748 46.2526 14.5931C49.391 15.6906 50.6401 16.7482 50.6401 18.5581C50.6401 20.5069 49.0243 21.8162 46.1437 21.8162C43.841 21.8162 41.6566 21.1084 40.1916 20.2898L39.2031 23.9049C40.5611 24.6845 43.2556 25.4259 45.8486 25.4259C52.2084 25.4259 55.2007 22.0596 55.2007 18.2401C55.2017 14.8012 53.1224 12.716 48.8438 11.1597Z" fill="#E83587"/>
<path d="M64.5404 21.8549C62.8185 21.8549 62.2368 20.7583 62.2406 18.665L62.2368 11.0494L65.352 11.0567L66.3079 7.80042H62.2368V2.90601L57.853 5.01568V19.1629C57.853 21.4297 58.2933 22.9852 59.2408 23.981C60.0784 24.8623 61.4764 25.4292 63.1127 25.4292C64.5395 25.4292 65.7048 25.2184 66.3721 24.9704L66.2902 21.6423C65.783 21.7822 65.3809 21.8549 64.5404 21.8549Z" fill="#E83587"/>
<path d="M18.692 7.40405C12.9912 7.40405 10.0044 11.9023 10.0044 16.6777C10.0044 21.9564 13.4063 25.4262 19.1648 25.4262C21.7215 25.4262 23.8418 24.9311 25.3663 24.3323L24.7092 21.3214C23.3643 21.8174 21.8649 22.0982 19.7828 22.0982C16.9403 22.0982 14.4217 20.7562 14.3082 17.6335H26.2114C26.2794 17.2447 26.3483 16.6132 26.3483 15.7991C26.3483 12.0068 24.497 7.40405 18.692 7.40405ZM14.3082 14.5926C14.499 12.8236 15.6642 10.3787 18.4407 10.3787C21.4283 10.3787 22.1534 12.9953 22.1162 14.588L14.3082 14.5926Z" fill="black"/>
<path d="M113.774 15.7991C113.774 12.0068 111.91 7.40405 106.105 7.40405C100.413 7.40405 97.416 11.9023 97.416 16.6777C97.416 21.9564 100.818 25.4262 106.581 25.4262C109.138 25.4262 111.258 24.9311 112.791 24.3323L112.13 21.3214C110.786 21.8174 109.288 22.0982 107.204 22.0982C104.354 22.0982 101.835 20.7562 101.73 17.6335H113.631C113.699 17.2437 113.774 16.6132 113.774 15.7991ZM101.727 14.5926C101.911 12.8236 103.081 10.3787 105.858 10.3787C108.855 10.3787 109.575 12.9953 109.54 14.588L101.727 14.5926Z" fill="#E83587"/>
<path d="M76.6229 7.40405C71.2534 7.40405 67.415 10.8747 67.415 16.536C67.415 22.06 71.2934 25.4262 76.326 25.4262C80.8578 25.4262 85.4491 22.597 85.4491 16.2589C85.4491 11.0183 81.917 7.40405 76.6229 7.40405ZM76.4768 22.2717C73.7357 22.2717 72.0548 19.7632 72.0548 16.4351C72.0548 13.5641 73.3336 10.5976 76.514 10.5976C79.578 10.5976 80.8187 13.6686 80.8187 16.3606C80.8187 19.8313 79.0307 22.2717 76.4768 22.2717Z" fill="#E83587"/>
<path d="M32.6418 7.90039C31.0344 7.90039 29.8691 9.0688 29.8691 10.696C29.8691 12.2896 30.9944 13.4553 32.6037 13.4553H32.6418C34.32 13.4553 35.4145 12.2896 35.4145 10.696C35.3764 9.0688 34.2846 7.90039 32.6418 7.90039Z" fill="black"/>
<path d="M32.6418 19.4827C31.0344 19.4827 29.8691 20.6547 29.8691 22.281C29.8691 23.8401 30.9944 25.0421 32.6037 25.0421H32.6418C34.32 25.0421 35.4145 23.8401 35.4145 22.281C35.3764 20.6193 34.2818 19.4827 32.6418 19.4827Z" fill="black"/>
</svg>
