<svg width="202" height="20" viewBox="0 0 202 20" fill="none" xmlns="http://www.w3.org/2000/svg">
<path fill-rule="evenodd" clip-rule="evenodd" d="M19.2453 4.23984L19.1816 2.56912L19.1176 0.898177L10.0115 0.841732C5.00345 0.810804 0.838877 0.851246 0.757176 0.931917C0.675694 1.01237 0.608887 1.78966 0.608887 2.65909V4.24006L4.27778 4.29932C7.35045 4.34885 7.95149 4.41135 7.97624 4.68299C7.99245 4.86142 8.01698 8.24743 8.031 12.2072L8.05619 19.4072L9.86326 19.3443L11.6703 19.2816L11.7798 11.8201L11.8894 4.35858L15.5675 4.29932L19.2453 4.23984ZM39.633 3.00686C39.6739 2.32278 39.6757 1.54441 39.6371 1.27666L39.5673 0.790039L32.8469 0.794798C26.8208 0.799123 26.0362 0.840213 25.2487 1.19339C24.1446 1.68866 23.0439 2.91105 22.7449 3.97426C22.4389 5.06191 22.4426 15.1308 22.7495 16.2215C23.0844 17.4132 24.5837 18.8218 25.8528 19.1371C26.5113 19.3008 29.1071 19.3897 33.2331 19.3897H39.5977L39.6251 18.0921C39.6402 17.3783 39.6647 16.624 39.6798 16.4159C39.7053 16.0653 39.215 16.0294 33.0266 15.9293L26.3459 15.8212L26.2832 13.7166L26.2206 11.6118L31.3211 11.5538L36.4216 11.4957V9.8736V8.25153L31.329 8.19357L26.2364 8.1354V6.19303V4.25044H32.8975H39.5587L39.633 3.00686ZM50.6751 4.47169C49.2385 2.62514 47.9571 1.04287 47.8276 0.955493C47.5521 0.76928 43.5404 0.730994 43.5404 0.914611C43.5404 0.98317 45.0752 3.03627 46.9508 5.47716C48.8267 7.91804 50.3163 10.0274 50.2614 10.1647C50.2066 10.302 48.676 12.3525 46.8604 14.7214C45.0448 17.0905 43.61 19.1098 43.6723 19.2091C43.8019 19.4165 47.052 19.4565 47.5775 19.2573C47.7698 19.1845 49.1723 17.53 50.6944 15.5807C52.2167 13.6314 53.4898 12.0364 53.5237 12.0364C53.5577 12.0364 54.74 13.5206 56.1509 15.3345C57.5617 17.1484 58.9103 18.8032 59.1475 19.0112C59.4894 19.3114 59.9818 19.3897 61.5258 19.3897C62.5967 19.3897 63.4729 19.3028 63.4729 19.1968C63.4729 19.0906 61.9411 16.9964 60.069 14.543C57.7882 11.5543 56.7223 9.98779 56.8382 9.79574C56.9335 9.63808 58.465 7.61547 60.2421 5.30111C62.0191 2.98675 63.4729 1.02146 63.4729 0.933864C63.4729 0.846056 62.5131 0.802148 61.3397 0.83632L59.2067 0.898177L56.3969 4.46672C54.8515 6.42942 53.5198 7.98876 53.4374 7.9321C53.3551 7.87543 52.112 6.31825 50.6751 4.47169ZM71.7963 8.1434V4.46672V0.790039H69.9321H68.0681L68.125 10.0358L68.1822 19.2816L69.9893 19.3443L71.7963 19.4072V15.6135V11.8201H77.1575H82.5189L82.5787 15.5508L82.6387 19.2816H84.391H86.1433L86.2005 10.0358L86.2575 0.790039H84.3934H82.5292V4.46672V8.1434H77.1628H71.7963ZM134.435 4.01125C134.139 2.92403 133.044 1.69558 131.924 1.19339C131.148 0.845187 130.385 0.798907 125.331 0.794798C119.766 0.790256 119.59 0.803231 118.65 1.29331C118.119 1.56993 117.389 2.21096 117.028 2.71748L116.371 3.63839V11.46V19.2816H118.123H119.875L119.933 11.9392C119.977 6.39546 120.057 4.55518 120.262 4.42693C120.726 4.13539 130.372 4.21238 130.674 4.50998C130.868 4.7016 130.937 6.68419 130.937 12.0883V19.4072L132.744 19.3443L134.551 19.2816L134.609 12.0703C134.645 7.50474 134.581 4.54804 134.435 4.01125ZM153.711 3.38534C153.199 2.39696 152.273 1.54398 151.259 1.12592C150.196 0.68731 147.303 0.692498 146.269 1.13478C145.293 1.55219 144.367 2.41902 143.864 3.38534C143.445 4.18967 138.603 18.6767 138.603 19.1252C138.603 19.3114 139.117 19.3897 140.341 19.3897H142.079L142.797 17.227L143.515 15.0642H148.788H154.062L154.779 17.227L155.497 19.3897H157.236C158.58 19.3897 158.974 19.3211 158.974 19.0865C158.974 18.6183 154.155 4.24071 153.711 3.38534ZM179.016 2.71683C178.654 2.21053 177.924 1.56993 177.393 1.29331C176.462 0.807989 176.247 0.790256 171.37 0.794798C166.951 0.798907 166.2 0.849296 165.433 1.19339C164.422 1.64692 163.218 2.90759 162.974 3.76772C162.882 4.09278 162.807 7.71625 162.807 11.8201V19.2816H164.559H166.311L166.373 16.6322L166.434 13.9828H171.695C177.455 13.9828 177.695 13.9389 178.765 12.6832C179.667 11.6246 179.823 10.722 179.745 7.02569C179.673 3.65936 179.668 3.63103 179.016 2.71683ZM187.668 8.35967V4.57486V0.790039H185.909C184.703 0.790039 184.116 0.875037 184.044 1.0606C183.986 1.20918 183.965 5.36988 183.996 10.3064L184.053 19.2816H185.806H187.558L187.618 15.5508L187.678 11.8201L189.37 11.8244L191.063 11.8285L194.129 15.5032C195.816 17.5241 197.394 19.2301 197.636 19.2943C198.359 19.4853 201.316 19.2995 201.397 19.0582C201.438 18.9353 199.706 16.7455 197.548 14.192C194.25 10.2891 193.668 9.4975 193.898 9.22477C194.048 9.04635 195.615 7.184 197.381 5.08613C199.146 2.98826 200.591 1.15965 200.591 1.02275C200.591 0.848431 199.983 0.792419 198.565 0.835891L196.539 0.898177L193.379 4.62892L190.218 8.35967H188.943H187.668ZM145.739 8.3534C146.389 6.36107 146.925 5.09716 147.262 4.76431C147.659 4.37264 148.022 4.25044 148.788 4.25044C150.294 4.25044 150.66 4.74225 151.838 8.3534C152.389 10.0449 152.841 11.5169 152.841 11.6246C152.841 11.734 151.058 11.8201 148.788 11.8201C146.518 11.8201 144.736 11.734 144.736 11.6246C144.736 11.5169 145.187 10.0449 145.739 8.3534ZM166.421 7.5348C166.421 5.887 166.487 4.47385 166.567 4.3947C166.647 4.31532 168.814 4.25044 171.382 4.25044C174.365 4.25044 175.567 4.1322 176.027 4.66031C176.414 5.10445 176.276 6.00574 176.232 7.81898L176.168 10.4143L171.294 10.4725L166.421 10.5306V7.5348Z" fill="#1C1E34"/>
<path d="M92.8926 16.6679C92.8926 16.5837 92.9617 16.5154 93.0471 16.5154H108.96C109.045 16.5154 109.114 16.5837 109.114 16.6679V19.1934C109.114 19.2776 109.045 19.3459 108.96 19.3459H93.0471C92.9617 19.3459 92.8926 19.2776 92.8926 19.1934V16.6679Z" fill="#0193C6"/>
<path fill-rule="evenodd" clip-rule="evenodd" d="M96.5226 0.855957C94.5175 0.855957 92.8921 2.46089 92.8921 4.44068V10.6201C92.8921 12.5999 94.5175 14.2048 96.5226 14.2048H105.483C107.488 14.2048 109.114 12.5999 109.114 10.6201V4.44068C109.114 2.46089 107.488 0.855957 105.483 0.855957H96.5226ZM96.2904 3.94791C96.1198 3.94791 95.9814 4.0845 95.9814 4.25299V10.8123C95.9814 10.9808 96.1198 11.1173 96.2904 11.1173H105.714C105.885 11.1173 106.023 10.9808 106.023 10.8123V4.25299C106.023 4.0845 105.885 3.94791 105.714 3.94791H96.2904Z" fill="#0193C6"/>
</svg>
