<svg width="176" height="38" viewBox="0 0 176 38" fill="none" xmlns="http://www.w3.org/2000/svg">
<path fill-rule="evenodd" clip-rule="evenodd" d="M36.5899 0.19013C33.8514 0.813272 32.3881 2.33816 31.6168 5.37219C31.1701 7.12989 31.1701 16.4341 31.6168 18.1918C32.6271 22.1666 35.2591 23.8746 39.9094 23.5734C43.8468 23.3183 45.748 21.1259 45.919 16.6434L45.9593 15.5827L43.6516 15.5336L41.3438 15.4844L41.2192 16.8594C41.0533 18.6901 40.6119 19.6707 39.801 20.0096C38.4402 20.5781 36.9737 19.714 36.5342 18.0848C36.1214 16.5543 35.9171 11.937 36.1324 8.99773C36.2445 7.4663 36.4253 5.88308 36.5342 5.47914C36.9556 3.91696 38.3172 3.05835 39.6762 3.49764C40.3363 3.71119 40.9282 4.73579 40.9386 5.68314C40.9418 5.97483 40.9938 6.51188 41.0541 6.87639L41.1637 7.53931H43.4386H45.7136V6.42738C45.7136 3.40784 44.3884 1.24461 42.0012 0.367085C40.9197 -0.0306653 37.9822 -0.126656 36.5899 0.19013ZM0.812012 11.7682V23.2725H3.19851H5.58501V18.6031V13.9337L8.45765 13.8708C11.8863 13.7958 12.6874 13.5379 13.9883 12.0912C15.1692 10.7777 15.5443 9.38876 15.4455 6.69537C15.3258 3.42746 14.4891 1.86793 12.3026 0.837844C11.3349 0.381934 11.3057 0.379459 6.07115 0.321829L0.812012 0.263846V11.7682ZM17.2523 11.782V23.2725H23.6163H29.9803V21.5081V19.7437L26.047 19.6961L22.1137 19.6486V16.3782V13.1078L25.6935 13.0599L29.2732 13.0122V11.2479V9.48386H25.6449H22.0163L22.0651 6.69962L22.1137 3.91537L25.9586 3.86764L29.8036 3.82008V2.05567V0.291424H23.528H17.2523V11.782ZM47.5625 0.512396C47.5162 0.634019 47.4987 5.78479 47.5239 11.9588L47.5697 23.1841L49.9104 23.2335L52.2513 23.2828L52.2969 13.5991L52.3427 3.91537L55.0386 3.86658L57.7344 3.81779V13.5452V23.2725H60.1209H62.5074V11.782V0.291424H55.0773C49.296 0.291424 47.6282 0.340391 47.5625 0.512396ZM64.2591 1.13112C64.4419 1.59304 65.7932 4.97427 67.2619 8.64523L69.9321 15.3195V19.2961V23.2725H72.3186H74.7051V19.2901V15.3078L77.8152 8.0205C79.5257 4.01259 80.966 0.634019 81.0161 0.512396C81.0863 0.341805 80.5485 0.292131 78.6573 0.294429L76.2077 0.297434L74.4553 4.98629C73.4915 7.5653 72.6562 9.70395 72.5992 9.73895C72.5421 9.77378 71.7451 7.66252 70.828 5.04692L69.1608 0.291424H66.5438H63.9268L64.2591 1.13112ZM82.3065 11.7959V23.3005L87.4957 23.2423L92.6848 23.1841L93.8896 22.5654C94.7998 22.0978 95.237 21.7384 95.6782 21.095C96.4898 19.9111 96.6584 19.2491 96.7551 16.8686C96.8274 15.0886 96.785 14.6168 96.4549 13.5301C96.1362 12.4806 95.9142 12.1102 95.1548 11.3604C93.824 10.0462 93.0527 9.80878 89.7754 9.70395L87.0795 9.61769V6.72224V3.82698H90.7035H94.3274V2.0592V0.291424H88.317H82.3065V11.7959ZM103.287 0.419941C103.226 0.520174 99.2938 14.6716 97.0226 22.9632C96.9448 23.2471 97.1419 23.2725 99.425 23.2725H101.912L102.068 22.698C102.154 22.3821 103.131 18.2874 104.238 13.5987C105.346 8.91004 106.304 5.13142 106.368 5.20178C106.432 5.27214 107.215 8.51159 108.108 12.4007C109.001 16.2898 109.932 20.3271 110.176 21.3722L110.621 23.2725H113.183H115.746L115.636 22.7864C115.576 22.5191 114.193 17.3681 112.562 11.34L109.597 0.379813L106.483 0.331552C104.77 0.305036 103.332 0.344811 103.287 0.419941ZM117.036 0.512396C116.99 0.634019 116.972 5.78479 116.998 11.9588L117.043 23.1841L120.331 23.232L123.618 23.2801L126.606 15.4711L129.595 7.66217L129.683 15.4231L129.771 23.1841L131.937 23.2338L134.102 23.2835V11.7875V0.291424H131.028C128.263 0.291424 127.941 0.322713 127.832 0.600785C127.766 0.770845 126.397 4.45012 124.791 8.77675C123.184 13.1034 121.798 16.719 121.71 16.8113C121.616 16.9108 121.551 13.5825 121.551 8.63533V0.291424H119.336C117.727 0.291424 117.098 0.351882 117.036 0.512396ZM136.224 11.782V23.2725H138.608H140.992L141.039 17.4049L141.085 11.5375L143.81 17.4049L146.534 23.2725H149.157C150.6 23.2725 151.782 23.2128 151.784 23.1399C151.787 23.0671 150.377 20.2187 148.652 16.8102L145.516 10.6129L148.573 5.6987C150.254 2.99577 151.671 0.67344 151.723 0.537852C151.802 0.334027 151.373 0.291424 149.247 0.291424H146.677L143.881 5.19046L141.085 10.0897L141.038 5.19046L140.991 0.291424H138.607H136.224V11.782ZM159.051 0.865951C158.95 1.18203 157.543 6.25184 155.922 12.1322C154.301 18.0127 152.937 22.9248 152.889 23.0482C152.822 23.2227 153.332 23.2725 155.181 23.2725H157.559L158.23 20.7092L158.9 18.146H162.139H165.378L165.553 18.8089C165.649 19.1736 165.941 20.3271 166.201 21.3722L166.673 23.2725H169.126C170.946 23.2725 171.579 23.2165 171.579 23.0558C171.579 22.9365 170.209 17.7657 168.534 11.5652L165.489 0.291424H162.361H159.232L159.051 0.865951ZM9.29133 4.13669C10.2424 4.61647 10.6232 5.4376 10.6232 7.00898C10.6232 8.56816 10.2367 9.52417 9.39987 10.0344C8.97101 10.296 8.50803 10.3665 7.2202 10.367L5.58501 10.3678V7.09737V3.82698L7.13182 3.82733C8.25259 3.82751 8.84744 3.91271 9.29133 4.13669ZM164.326 14.4778C164.329 14.5507 163.337 14.6104 162.122 14.6104C160.894 14.6104 159.912 14.5381 159.912 14.4476C159.912 14.2067 161.848 5.37414 161.969 5.06442C162.047 4.86201 164.298 13.8505 164.326 14.4778ZM90.7143 13.5565C91.6197 14.116 92.0839 15.2519 91.9968 16.6953C91.9148 18.0548 91.6215 18.7534 90.9119 19.2791C90.5078 19.5786 90.0975 19.6602 88.7464 19.7099L87.0795 19.7711V16.4837V13.1962H88.6055C89.8323 13.1962 90.2456 13.2667 90.7143 13.5565Z" fill="black"/>
<path d="M44.4183 33.6478C44.8022 32.8891 44.8728 32.0849 45.0929 31.3071C45.3456 30.4141 45.5559 29.5083 45.7719 28.6152C45.8467 28.3062 46.0372 28.1824 46.4776 28.1771C48.3478 28.157 48.3478 28.1454 48.3478 29.5273C48.3478 31.9611 48.3224 34.3949 48.369 36.8286C48.3789 37.3863 48.0528 37.4286 47.4854 37.4085C46.9674 37.3905 46.4564 37.4847 46.4974 36.8456C46.5609 35.6668 46.5256 34.4848 46.5171 33.3039C46.5171 33.0658 46.5863 32.8161 46.3957 32.5759C46.1431 32.6415 46.2221 32.8044 46.1911 32.9251C45.8551 34.2541 45.5164 35.5821 45.1917 36.9133C45.1 37.2911 44.8502 37.4212 44.3223 37.418C43.7436 37.418 43.7196 37.1747 43.6391 36.854C43.2637 35.3356 42.8543 33.8213 42.4507 32.2796C42.1684 32.4658 42.2658 32.7029 42.2643 32.9145C42.2545 34.2361 42.2418 35.5599 42.2756 36.8805C42.2855 37.3038 42.1119 37.4699 41.5515 37.4096C41.0773 37.3556 40.4224 37.6043 40.4224 36.89C40.4478 34.1592 40.4478 31.4278 40.4224 28.6956C40.4224 28.2861 40.6327 28.1665 41.1281 28.1919C41.6659 28.2184 42.2573 28.1178 42.733 28.2522C43.3455 28.4258 43.0802 28.9718 43.1889 29.3432C43.5784 30.6797 43.8791 32.0309 44.2164 33.3769C44.2489 33.4605 44.1868 33.5833 44.4183 33.6478Z" fill="#3CB7C8"/>
<path d="M30.994 33.3551C31.5925 32.5192 31.8042 31.5996 32.2178 30.7362C32.5664 30.0103 32.8205 29.2548 33.155 28.5299C33.4373 27.912 34.1585 28.2432 34.6808 28.204C35.203 28.1649 35.0562 28.5289 35.0562 28.7468C35.0647 31.4085 35.0647 34.0701 35.0562 36.7317C35.0562 36.9434 35.2045 37.246 34.8473 37.3486C34.4221 37.4583 33.9609 37.4613 33.5333 37.3571C33.2665 37.2979 33.3667 37.0524 33.3667 36.8852C33.3667 35.4746 33.3667 34.0652 33.3667 32.6525C33.3667 32.4504 33.4429 32.2293 33.203 31.9795C32.9644 32.4927 32.7344 32.952 32.5382 33.4197C32.0314 34.6249 31.5501 35.8355 31.0392 37.0386C30.771 37.6735 30.0511 37.3508 29.5261 37.3814C29.0405 37.41 29.121 37.064 29.121 36.8312C29.121 34.117 29.1421 31.4018 29.1012 28.6834C29.0913 28.041 29.6108 28.2072 30.0695 28.1797C30.5875 28.149 30.8896 28.2019 30.8712 28.7035C30.819 30.0949 30.8458 31.4885 30.85 32.8811C30.8458 33.0324 30.7512 33.2006 30.994 33.3551Z" fill="#3CB6C8"/>
<path d="M19.2205 31.9485C18.6841 33.1908 18.1858 34.3537 17.6961 35.5187C17.4815 36.0214 17.2952 36.5293 17.0778 37.0308C16.804 37.6657 16.0898 37.3483 15.569 37.3822C15.0792 37.4139 15.1455 37.0795 15.1455 36.8404C15.1455 34.1262 15.1455 31.412 15.1328 28.6978C15.1328 28.3137 15.2528 28.1687 15.7976 28.1772C16.8788 28.1962 16.8788 28.1772 16.8774 28.9613C16.8774 30.2833 16.8774 31.6049 16.8774 32.9262C16.8774 33.0574 16.8026 33.2056 17.003 33.3495C17.5563 32.7347 17.6805 32.0173 17.9911 31.3549C18.4145 30.4448 18.7998 29.5253 19.1696 28.6036C19.4435 27.9243 20.1676 28.2301 20.7053 28.2037C21.2953 28.174 21.0864 28.5645 21.0878 28.7909C21.101 31.4716 21.101 34.1505 21.0878 36.8277C21.0878 37.0298 21.1895 37.3113 20.8267 37.3684C20.4033 37.4351 19.9304 37.4742 19.5169 37.3377C19.3122 37.2679 19.3941 37.0499 19.3941 36.8954C19.3941 35.4859 19.3941 34.0754 19.3941 32.6627C19.3898 32.4585 19.4604 32.2448 19.2205 31.9485Z" fill="#3BB6C8"/>
<path d="M151.42 33.5358L153.223 29.3158C153.281 29.1814 153.339 29.0481 153.404 28.9158C153.762 28.1878 154.087 28.0577 155.111 28.1878C155.433 28.227 155.47 28.3614 155.47 28.555C155.47 31.3768 155.47 34.1985 155.47 37.0203C155.47 37.3261 155.288 37.4023 154.905 37.4118C153.727 37.4404 153.724 37.4478 153.725 36.5716C153.725 35.2504 153.725 33.9284 153.725 32.6056C153.725 32.4395 153.787 32.2628 153.615 32.0512C153.032 32.9665 152.768 33.9199 152.345 34.832C152.012 35.56 151.762 36.3135 151.439 37.0404C151.166 37.6541 150.451 37.3642 149.92 37.3907C149.415 37.4161 149.512 37.0796 149.512 36.8457C149.512 34.1315 149.529 31.4173 149.494 28.7031C149.485 28.0746 150.002 28.2143 150.471 28.191C150.939 28.1677 151.247 28.2048 151.23 28.6852C151.18 30.0936 151.206 31.5052 151.214 32.9178C151.228 33.1083 151.13 33.3326 151.42 33.5358Z" fill="#3BB6C8"/>
<path d="M59.5806 37.6287C57.6596 37.7641 56.721 36.6097 56.529 35.5843C56.4739 35.288 56.4132 34.9928 56.3765 34.6954C56.3271 34.2997 56.5615 34.0902 57.1119 34.1187C57.5876 34.1441 58.2044 33.9632 58.2016 34.6193C58.2016 35.1208 58.4373 35.5441 59.136 35.7494C59.9321 35.9832 60.6886 35.6499 60.7592 35.0087C60.7745 34.8325 60.7778 34.656 60.7691 34.4796C60.7521 33.8098 60.4755 33.5579 59.5919 33.5823C58.9045 33.6024 58.7055 33.4003 58.7775 32.9378C58.7867 32.8145 58.7867 32.6908 58.7775 32.5675C58.7775 31.8479 58.7775 31.8384 59.7373 31.7929C59.9023 31.7939 60.0632 31.7543 60.1953 31.6801C60.3274 31.606 60.4233 31.5013 60.4684 31.3823C60.6561 30.9963 60.6465 30.5719 60.4416 30.1908C60.2539 29.8385 59.8417 29.703 59.3491 29.7676C58.8226 29.8342 58.5573 30.1083 58.4571 30.484C58.2693 31.1792 57.9038 31.3538 56.9778 31.194C56.8198 31.1675 56.673 31.1633 56.6066 31.0056C56.2848 30.2385 57.1867 28.5264 58.2044 28.137C59.8573 27.5021 62.0634 28.0047 62.4304 29.6184C62.6633 30.6437 62.6774 31.6151 61.623 32.4246C61.4353 32.5696 61.4438 32.6744 61.7035 32.7929C62.3796 33.1029 62.6506 33.6034 62.7 34.1685C62.7425 34.662 62.7355 35.1572 62.6788 35.6499C62.5391 36.7906 61.4395 37.7567 59.5806 37.6287Z" fill="#3DB7C9"/>
<path d="M13.072 32.7541C13.072 34.1107 13.0339 35.4672 13.0875 36.8217C13.1129 37.4322 12.6641 37.3931 12.108 37.4121C11.5292 37.4333 11.2611 37.3486 11.2836 36.8439C11.3387 35.8916 11.2836 34.9392 11.3062 33.9922C11.3147 33.589 11.1326 33.4366 10.5666 33.4493C8.92789 33.4863 9.09444 33.3149 9.08598 34.5519C9.08598 35.3265 9.06763 36.1021 9.09444 36.8799C9.10715 37.2576 8.9533 37.4164 8.41552 37.409C7.28634 37.409 7.28634 37.4248 7.28634 36.5931C7.28634 33.9869 7.31175 31.3795 7.26658 28.7744C7.25105 28.1881 7.62368 28.1733 8.20521 28.1754C8.7698 28.1754 9.15232 28.1913 9.10433 28.7553C9.0394 29.5087 9.10432 30.2685 9.07751 31.0251C9.06198 31.4261 9.21865 31.6007 9.79171 31.5891C11.5899 31.5531 11.2724 31.7563 11.2992 30.4875C11.3119 29.8526 11.3147 29.2177 11.2907 28.5828C11.2808 28.2939 11.4079 28.1543 11.8115 28.1881C11.9753 28.2008 12.1404 28.2008 12.3041 28.1881C12.9379 28.1278 13.1242 28.2834 13.096 28.7976C13.0226 30.1108 13.072 31.4335 13.072 32.7541Z" fill="#44B9CA"/>
<path d="M121.174 32.738C121.174 31.4153 121.193 30.0926 121.163 28.7709C121.154 28.3476 121.304 28.1688 121.907 28.1794C123.387 28.2059 124.871 28.2006 126.35 28.1794C126.882 28.172 127.098 28.2852 127.094 28.7148C127.071 31.429 127.066 34.1443 127.094 36.8627C127.094 37.4552 126.642 37.3918 126.131 37.4076C125.62 37.4235 125.316 37.3748 125.325 36.8785C125.362 34.7982 125.325 32.7179 125.356 30.6354C125.363 30.1433 125.215 29.9508 124.51 29.9677C123.009 30.0047 123.008 29.9772 123.008 31.083C123.008 32.9697 122.988 34.8553 123.022 36.742C123.03 37.2203 122.924 37.4457 122.193 37.4108C121.184 37.3621 121.18 37.3992 121.178 36.7547L121.174 32.738Z" fill="#3CB7C8"/>
<path d="M91.5856 32.7086C91.5856 31.3171 91.5969 29.9257 91.5757 28.5342C91.5757 28.2601 91.7281 28.1892 92.0259 28.1892C93.6957 28.1892 95.3641 28.1892 97.0325 28.1892C97.3797 28.1892 97.4559 28.3299 97.4559 28.5617C97.4503 31.363 97.4503 34.1647 97.4559 36.9667C97.4559 37.2841 97.2724 37.3899 96.8603 37.4079C95.6817 37.4502 95.6831 37.4598 95.6831 36.5931C95.6831 34.5668 95.669 32.5404 95.6958 30.515C95.6958 30.0918 95.5264 29.9712 94.9717 29.9754C93.3767 29.9891 93.3767 29.9754 93.3767 31.1753C93.3767 33.08 93.3598 34.9847 93.3923 36.8894C93.3923 37.3254 93.2017 37.4577 92.6611 37.4122C92.1826 37.3719 91.5842 37.5539 91.5997 36.8915C91.635 35.5001 91.611 34.1086 91.611 32.716L91.5856 32.7086Z" fill="#40B8C9"/>
<path d="M129.157 32.7695C129.157 31.414 129.174 30.0574 129.147 28.7019C129.139 28.3199 129.259 28.1728 129.808 28.1781C131.193 28.2049 132.579 28.2049 133.965 28.1781C134.539 28.1686 134.679 28.3368 134.671 28.7389C134.656 29.9781 134.671 29.9781 133.046 29.9781C132.507 29.9781 131.966 29.9855 131.426 29.9781C131.039 29.9728 130.876 30.0987 130.882 30.3907C130.916 32.0838 130.624 31.7663 132.589 31.7865C134.191 31.8034 134.165 31.7865 134.181 32.9853C134.188 33.4478 133.997 33.6128 133.373 33.5737C132.749 33.5345 132.103 33.5737 131.472 33.5631C131.049 33.5568 130.872 33.6901 130.884 34.0054C130.947 35.9218 130.46 35.5175 132.848 35.5662H132.919C134.851 35.5662 134.846 35.5662 134.706 37.0296C134.683 37.2572 134.615 37.3968 134.267 37.3958C132.717 37.3958 131.167 37.3958 129.616 37.3958C129.098 37.3958 129.154 37.1333 129.153 36.8857L129.157 32.7695Z" fill="#3AB6C8"/>
<path d="M99.5317 32.7541C99.5317 31.3975 99.5501 30.041 99.5204 28.6855C99.5105 28.2823 99.687 28.1712 100.205 28.1807C101.591 28.204 102.979 28.2008 104.363 28.1807C104.892 28.1733 105.048 28.3183 105.048 28.7098C105.048 29.9796 105.066 29.9796 103.401 29.9796C102.931 29.9796 102.461 29.9796 101.989 29.9796C101.848 29.9796 101.662 29.9479 101.574 30.0018C100.933 30.3986 101.382 30.9415 101.279 31.4134C101.211 31.7192 101.506 31.7933 101.861 31.7901C102.566 31.7848 103.272 31.7986 103.978 31.7901C104.36 31.7838 104.533 31.8832 104.526 32.1859C104.485 33.8514 104.773 33.5414 102.787 33.5615C101.034 33.5826 101.281 33.4208 101.266 34.7255C101.258 35.5604 101.266 35.5604 102.381 35.5614C103.087 35.5614 103.793 35.5773 104.499 35.5614C104.969 35.5466 105.092 35.6842 105.094 36.0238C105.106 37.3994 105.12 37.3994 103.314 37.3994C102.304 37.3994 101.293 37.3783 100.284 37.4079C99.6813 37.427 99.5176 37.2524 99.5261 36.8238C99.55 35.4662 99.5317 34.1138 99.5317 32.7541Z" fill="#3AB6C8"/>
<path d="M2.20764 31.7194C2.75953 30.7099 3.26202 29.7554 3.80685 28.8158C3.92965 28.6041 3.91271 28.2571 4.29381 28.22C4.85394 28.1684 5.42039 28.1684 5.98053 28.22C6.26282 28.2444 6.08356 28.4316 6.00593 28.5523C5.30019 29.6432 4.62268 30.7427 3.88871 31.822C3.76067 31.9872 3.68996 32.1738 3.68305 32.3648C3.67615 32.5557 3.73327 32.745 3.84919 32.9151C4.65091 34.2579 5.40182 35.6176 6.17813 36.9689C6.3461 37.261 6.25435 37.4091 5.81115 37.4006C5.69399 37.4006 5.57684 37.4006 5.45969 37.4006C4.15972 37.4006 4.18089 37.4006 3.76591 36.4716C3.2846 35.4134 2.76235 34.369 2.23869 33.2791C1.9564 33.4495 2.03968 33.6505 2.03826 33.8209C2.03826 34.8251 2.00439 35.8314 2.05238 36.8324C2.07496 37.3244 1.8096 37.444 1.22243 37.407C0.710062 37.3742 0.184992 37.5001 0.19346 36.8546C0.230159 34.1426 0.220279 31.4305 0.19346 28.7174C0.19346 28.2941 0.392479 28.1671 0.931664 28.1798C2.202 28.2073 2.01568 28.0867 2.02274 28.9925C2.02274 29.7141 2.02274 30.4358 2.02274 31.1585C2.02838 31.3257 1.97898 31.5046 2.20764 31.7194Z" fill="#3CB6C8"/>
<path d="M138.023 33.3923C137.707 33.6251 137.91 33.8378 137.908 34.0336C137.908 35.0018 137.896 35.971 137.908 36.9393C137.908 37.28 137.749 37.4006 137.29 37.4059C136.106 37.4218 136.107 37.4355 136.107 36.5731C136.107 33.9669 136.13 31.3596 136.089 28.7533C136.079 28.1861 136.441 28.1734 136.992 28.1819C137.515 28.1893 137.959 28.1449 137.92 28.7353C137.856 29.6559 137.903 30.5797 137.903 31.5649C138.161 31.3889 138.355 31.1669 138.467 30.9194C138.899 30.0855 139.358 29.2591 139.796 28.4253C139.875 28.2729 139.989 28.1819 140.204 28.1936C140.777 28.2242 141.505 28.0041 141.869 28.2994C142.075 28.4697 141.543 28.965 141.321 29.3067C140.729 30.2199 140.133 31.131 139.549 32.0474C139.481 32.1607 139.447 32.2838 139.45 32.4079C139.452 32.5321 139.491 32.6543 139.564 32.7659C140.353 34.1224 141.117 35.4748 141.906 36.8229C142.171 37.2789 142.096 37.3879 141.444 37.3996C140.069 37.4239 140.062 37.426 139.577 36.4472C139.176 35.6409 138.799 34.8282 138.401 34.0209C138.295 33.8145 138.16 33.6188 138.023 33.3923Z" fill="#3BB6C8"/>
<path d="M115.197 32.9409C115.147 33.7199 115.326 34.4976 115.722 35.2191C115.942 35.6 116.306 35.8402 116.838 35.8117C117.37 35.7831 117.64 35.4942 117.764 35.1207C117.838 34.8995 117.994 34.6847 118.003 34.4646C118.017 34.1101 118.227 34.0255 118.66 34.0234C119.797 34.0149 119.829 34.0308 119.715 34.8699C119.626 35.4462 119.422 36.0092 119.109 36.5397C118.308 37.9629 115.43 37.9883 114.386 36.8148C113.749 36.0974 113.52 35.2985 113.398 34.4805C113.157 32.8784 113.206 31.2732 113.856 29.7272C114.219 28.8627 114.844 28.0807 116.23 27.9284C117.578 27.777 118.793 28.3421 119.307 29.3548C119.545 29.8709 119.683 30.4101 119.716 30.9558C119.743 31.2351 119.609 31.3684 119.204 31.3885C118.13 31.4383 118.131 31.4499 117.838 30.6584C117.807 30.5738 117.783 30.487 117.746 30.4034C117.596 30.0627 117.322 29.8108 116.818 29.7738C116.315 29.7368 115.972 29.96 115.77 30.2785C115.247 31.0848 115.19 31.9621 115.197 32.9409Z" fill="#3DB7C8"/>
<path d="M80.2129 36.9792C79.9221 37.3855 79.4182 37.0935 79.03 37.1803C78.4654 37.3072 78.3723 37.0469 78.2086 36.7125C77.9884 36.2692 77.9009 35.7814 77.5028 35.3877C77.0469 35.1846 77.0991 34.7878 76.9058 34.4851C76.7124 34.1825 76.6827 33.8111 76.2777 33.5592C76.08 33.7603 76.1182 33.9719 76.1168 34.1751C76.1168 35.0216 76.1168 35.8681 76.1168 36.7147C76.1168 36.9602 76.1704 37.2437 75.7738 37.3443C75.3699 37.4477 74.9309 37.444 74.5302 37.3337C74.2564 37.2533 74.3609 37.0268 74.3609 36.8607C74.3609 35.4343 74.3609 34.0037 74.3609 32.5815C74.3609 31.2958 74.3849 30.0091 74.3482 28.7245C74.3355 28.2885 74.5542 28.1816 75.085 28.1859C76.1309 28.188 76.1309 28.1721 76.1309 28.9541C76.1309 29.6229 76.1309 30.293 76.1309 30.9646C76.1309 31.1202 76.0702 31.3508 76.2805 31.3942C76.5952 31.4598 76.5769 31.1826 76.6926 31.0471C77.1542 30.2228 77.651 29.4091 78.0575 28.57C78.2114 28.2409 78.4443 28.188 78.831 28.188C80.3836 28.1711 80.3724 28.1637 79.7061 29.1922C79.071 30.1678 78.4527 31.1508 77.8246 32.1296C77.765 32.2058 77.7306 32.2916 77.7242 32.3797C77.7178 32.4679 77.7397 32.556 77.7879 32.6365C78.7237 34.0428 79.3095 35.5613 80.2129 36.9792Z" fill="#3BB6C8"/>
<path d="M50.4423 36.4727C50.4423 36.3309 50.4536 36.1902 50.4423 36.0494C50.407 35.7002 50.479 35.5203 51.0662 35.641C51.5898 35.7468 51.7888 35.4209 51.8622 35.078C51.985 34.513 51.6505 34.0008 51.4698 33.4834C50.9053 31.8718 50.2644 30.2761 49.6434 28.6772C49.5192 28.3598 49.5474 28.1905 50.0894 28.1799C51.6886 28.1492 51.7013 28.1524 52.0062 29.3946C52.1869 30.1354 52.4071 30.8761 52.6188 31.6083C52.6626 31.7575 52.7063 31.9628 52.966 31.9512C53.2257 31.9395 53.1425 31.7279 53.1721 31.6051C53.3965 30.6898 53.6336 29.7745 53.7988 28.8539C53.8877 28.3619 54.1263 28.1058 54.8278 28.1862C55.0156 28.1979 55.2045 28.1979 55.3924 28.1862C55.8327 28.1788 55.9273 28.273 55.8073 28.6317C55.3486 30.0073 54.9703 31.4052 54.5497 32.7913C54.1742 34.023 53.8073 35.2558 53.3852 36.478C53.2215 36.9531 52.7557 37.3012 52.1671 37.5213C51.2045 37.8843 50.4423 37.4123 50.4423 36.4727Z" fill="#3BB6C8"/>
<path d="M146.217 33.6704C146.217 34.7455 146.188 35.8216 146.231 36.8957C146.254 37.41 145.888 37.4248 145.394 37.4015C144.9 37.3782 144.392 37.5073 144.406 36.8872C144.437 34.7889 144.406 32.6916 144.436 30.5943C144.444 30.0896 144.216 29.9594 143.589 29.9711C142.154 29.9975 142.378 30.0652 142.361 29.0409C142.361 28.8822 142.372 28.7235 142.361 28.5648C142.329 28.2939 142.491 28.1881 142.849 28.1881C144.473 28.1881 146.096 28.1881 147.718 28.1881C147.787 28.1881 147.881 28.1733 147.925 28.2008C148.559 28.605 148.096 29.1457 148.221 29.6155C148.293 29.8864 148.058 29.9954 147.712 29.9806H147.641C146.217 30.0293 146.217 30.0293 146.217 31.079V33.6704Z" fill="#3BB6C8"/>
<path d="M24.9269 33.6915C24.9269 34.7497 24.9058 35.8078 24.9382 36.866C24.9509 37.2723 24.8112 37.4691 24.2325 37.4046C24.0447 37.3913 23.8557 37.3913 23.6679 37.4046C23.2444 37.4162 23.0906 37.2818 23.1033 36.958C23.2106 34.1751 23.2106 31.3921 23.1033 28.6091C23.0906 28.3097 23.2374 28.1859 23.6255 28.1912C24.8479 28.1912 26.0829 28.1129 27.2954 28.2155C28.3907 28.3076 27.644 29.0314 27.8162 29.4504C27.9362 29.7424 27.8275 30.0123 27.2615 29.99C26.6955 29.9678 26.1323 30.0049 25.5677 29.9795C25.0667 29.9562 24.9142 30.1054 24.9227 30.4694C24.941 31.5413 24.9255 32.6164 24.9269 33.6915Z" fill="#3BB6C8"/>
<path d="M72.428 32.8029C72.428 34.1425 72.411 35.4822 72.4393 36.8239C72.4477 37.2472 72.2981 37.425 71.694 37.4154C70.5775 37.3985 70.5804 37.4218 70.5804 36.5954C70.5804 33.9373 70.5917 31.2802 70.562 28.6221C70.562 28.2422 70.7314 28.1798 71.1647 28.183C72.6778 28.1946 72.4167 28.1396 72.4252 29.1046C72.435 30.3353 72.428 31.5744 72.428 32.8029Z" fill="#45B9CA"/>
<path d="M69.7797 32.5168C70.2032 32.9771 70.2314 33.5073 70.2173 34.0332C70.1961 34.8014 70.3697 35.5813 69.935 36.3273C69.5779 36.9505 69.0105 37.3378 68.0831 37.36C67.0499 37.3844 66.0167 37.3833 64.9779 37.4045C64.5544 37.413 64.3907 37.2828 64.3921 36.9664C64.3987 34.1637 64.3987 31.361 64.3921 28.5582C64.3921 28.2863 64.5205 28.1953 64.8833 28.1794C66.251 28.117 66.251 28.1075 66.251 29.1148C66.251 29.7318 66.2708 30.3487 66.244 30.9656C66.227 31.3571 66.426 31.4946 66.9497 31.4809C67.7401 31.4661 68.5433 31.4523 69.2081 31.8819C69.4904 32.0597 69.7204 32.2428 69.7825 32.5221C69.5341 32.5814 69.3774 32.4586 69.2292 32.3518C68.6646 31.9465 68.0027 31.8163 67.2306 31.8301C66.0576 31.8502 65.901 31.7105 65.8911 30.8195C65.8911 30.2026 65.8911 29.5857 65.8911 28.9688C65.8911 28.6683 65.7881 28.4524 65.2997 28.4598C64.8367 28.4672 64.7718 28.6873 64.7704 28.9561C64.7704 31.4767 64.7704 33.9961 64.7704 36.5156C64.7704 36.8722 64.9694 37.0257 65.4451 37.0204C66.1508 37.014 66.8565 37.0024 67.5623 37.0204C68.9738 37.0627 69.616 36.5834 69.8037 35.468C69.935 34.6945 69.9957 33.8861 69.6626 33.1094C69.5624 32.9052 69.5581 32.6935 69.7797 32.5168Z" fill="#45B9CA"/>
<path fill-rule="evenodd" clip-rule="evenodd" d="M157.543 32.7527C157.543 32.3817 157.545 32.0107 157.546 31.6396C157.551 30.6885 157.555 29.7375 157.53 28.7898C157.517 28.338 157.671 28.1549 158.315 28.1782C158.918 28.2019 159.523 28.1969 160.13 28.1919C160.418 28.1895 160.707 28.1871 160.997 28.1878C161.955 28.1878 162.549 28.4586 162.861 29.1517C163.324 30.1866 163.414 31.2215 162.466 32.1633C162.247 32.3749 162.354 32.5431 162.558 32.723C163.862 33.8722 163.7 35.1568 163.08 36.4478C162.836 36.9567 162.249 37.253 161.464 37.325C160.781 37.388 160.097 37.3886 159.413 37.3892H159.413H159.413C159.018 37.3895 158.623 37.3898 158.229 37.4022C157.701 37.4181 157.533 37.2573 157.538 36.8731C157.549 35.9574 157.547 35.0417 157.544 34.126C157.543 33.6682 157.542 33.2105 157.543 32.7527ZM159.345 34.5441V34.4912C159.345 33.4439 159.657 33.2556 160.997 33.6068C161.669 33.7835 161.659 34.2765 161.615 34.7187C161.541 35.4592 160.385 35.912 159.521 35.547C159.348 35.474 159.346 35.3503 159.345 35.2297L159.345 35.2296C159.342 34.999 159.343 34.7716 159.345 34.5441ZM159.34 30.6831C159.335 30.7356 159.335 30.7882 159.34 30.8407H159.357C159.357 30.9165 159.356 30.9924 159.355 31.0682C159.353 31.2198 159.351 31.3714 159.357 31.5231C159.351 31.5927 159.382 31.6613 159.443 31.7138C159.505 31.7663 159.591 31.7985 159.684 31.8034C160.86 31.9938 161.438 31.6204 161.348 30.7148C161.293 30.1499 160.841 29.95 159.832 29.9669C159.233 29.977 159.277 30.2081 159.322 30.4411C159.338 30.5249 159.354 30.609 159.34 30.6831Z" fill="#3AB6C8"/>
<path fill-rule="evenodd" clip-rule="evenodd" d="M80.603 36.8145C80.5508 37.0134 80.428 37.0357 80.2134 36.9796C80.0009 37.0362 79.7804 37.0349 79.5603 37.0336C79.4311 37.0329 79.302 37.0321 79.1746 37.0431C78.7229 37.0886 78.4985 36.9457 78.3574 36.6283C78.3198 36.5427 78.2846 36.4563 78.2494 36.3698C78.1418 36.1055 78.0339 35.8405 77.8563 35.5966C77.8408 35.5753 77.8279 35.5504 77.8147 35.5251C77.7628 35.4252 77.7073 35.3185 77.4822 35.4029L77.4808 35.4094C77.4516 35.5417 77.422 35.6758 77.5345 35.7987C77.5931 35.9176 77.6527 36.0362 77.7123 36.1549C77.8422 36.4134 77.9721 36.672 78.092 36.933C78.2374 37.2473 78.4548 37.424 78.9587 37.406C79.8535 37.3774 80.7484 37.3838 81.6405 37.406C82.2149 37.4208 82.4718 37.2356 82.4718 36.8208C82.4778 36.5385 82.5534 36.2594 82.6948 35.9976C82.7271 35.9133 82.7934 35.8387 82.8847 35.7839C82.976 35.7291 83.0877 35.6969 83.2044 35.6918C84.6314 35.5563 84.8544 35.6622 85.1677 36.6822C85.1819 36.7301 85.2027 36.7769 85.2234 36.8237C85.2399 36.8607 85.2563 36.8977 85.2694 36.9351C85.4246 37.3753 86.0457 37.5679 86.901 37.3901C87.383 37.29 87.2707 37.0903 87.1591 36.8919C87.1138 36.8114 87.0687 36.7312 87.0634 36.6579C87.0447 36.5359 87.015 36.415 86.9744 36.296C86.6263 35.0424 86.2809 33.7889 85.9384 32.5353C85.8533 32.2244 85.7655 31.9139 85.6776 31.6034C85.4449 30.7807 85.2122 29.9582 85.0308 29.1301C85.0222 29.0907 85.014 29.0529 85.0061 29.0166C84.8255 28.1834 84.8238 28.176 83.6349 28.1841H83.3526C83.0505 28.1714 82.8939 28.2529 82.8346 28.5016C82.7203 28.9702 82.5884 29.4388 82.4566 29.9075C82.3801 30.1795 82.3036 30.4516 82.2305 30.7237C81.6819 32.754 81.1394 34.7842 80.603 36.8145ZM84.4013 33.3244C84.2799 32.649 84.1578 31.9704 83.7125 31.3407C83.6606 31.5749 83.6064 31.8093 83.5523 32.0438C83.4208 32.6132 83.2892 33.1827 83.1902 33.7501C83.1382 34.0389 83.4319 34.0319 83.683 34.0258C83.718 34.025 83.7522 34.0242 83.7844 34.0242C83.8348 34.0234 83.8901 34.0257 83.9468 34.0281C84.2259 34.0395 84.5403 34.0525 84.4746 33.7183C84.4486 33.5874 84.425 33.456 84.4013 33.3244Z" fill="#42B8CA"/>
<path fill-rule="evenodd" clip-rule="evenodd" d="M109.073 28.192C108.906 28.194 108.74 28.196 108.573 28.196L108.576 28.1865H106.882C106.491 28.1865 106.354 28.3135 106.367 28.6098C106.479 31.3906 106.473 34.1715 106.367 36.9523C106.367 37.273 106.508 37.4137 106.932 37.4031C107.167 37.3914 107.402 37.3914 107.637 37.4031C108.061 37.437 108.215 37.2973 108.202 36.9799C108.185 36.5793 108.188 36.1798 108.192 35.7809C108.193 35.6161 108.195 35.4514 108.195 35.2868C108.199 34.716 108.154 34.4495 108.266 34.3266C108.396 34.1841 108.738 34.2349 109.616 34.2286C110.769 34.2202 111.464 33.8678 111.859 33.0869C112.436 31.9451 112.352 30.7737 112.069 29.6098C111.899 28.9135 110.944 28.2363 110.194 28.2013C109.821 28.183 109.447 28.1875 109.073 28.192ZM108.182 30.8356C108.169 30.9578 108.169 31.0806 108.182 31.2028H108.189V32.044C108.191 32.1879 108.203 32.3223 108.411 32.3996C108.604 32.4745 108.82 32.5116 109.037 32.5075C109.255 32.5034 109.467 32.4583 109.655 32.3762C109.843 32.2941 110.001 32.1777 110.113 32.0379C110.225 31.8981 110.288 31.7393 110.297 31.5763C110.306 31.3488 110.305 31.1202 110.297 30.8927C110.266 30.1478 109.973 29.9944 108.872 29.9647C108.108 29.9442 108.143 30.242 108.178 30.5413C108.19 30.6434 108.202 30.7457 108.182 30.8356Z" fill="#3EB7C9"/>
<path fill-rule="evenodd" clip-rule="evenodd" d="M168.785 29.2336C168.704 28.9248 168.623 28.6159 168.542 28.3071C168.327 28.1716 168.084 28.1811 167.839 28.1907C167.708 28.1958 167.577 28.2009 167.45 28.1844C166.863 28.1124 166.544 28.3166 166.484 28.7346C166.428 29.1389 166.311 29.5347 166.195 29.9296C166.141 30.1114 166.087 30.2931 166.04 30.4753C165.864 31.1654 165.67 31.8531 165.476 32.541C165.282 33.2316 165.087 33.9224 164.911 34.6159C164.879 34.7368 164.857 34.8607 164.834 34.985C164.78 35.2781 164.726 35.5735 164.56 35.8381C164.433 36.0415 164.409 36.2558 164.385 36.4691C164.363 36.6729 164.34 36.8758 164.227 37.0676C164.215 37.093 164.209 37.1201 164.211 37.1471C164.212 37.1742 164.221 37.2008 164.237 37.2252C164.253 37.2496 164.275 37.2714 164.302 37.2892C164.329 37.307 164.361 37.3206 164.395 37.329C164.872 37.427 165.375 37.4339 165.856 37.3491C166.107 37.3096 166.118 37.1544 166.128 37.0012C166.132 36.9331 166.137 36.8654 166.162 36.8084C166.179 36.7726 166.196 36.7368 166.213 36.7009C166.304 36.5075 166.397 36.3108 166.376 36.0931C166.353 35.8624 166.545 35.7481 166.837 35.7026C168.301 35.4793 168.724 35.6952 168.925 36.7788C168.942 36.8661 168.968 36.9524 169.002 37.037C169.081 37.2412 169.247 37.3904 169.549 37.3798C169.673 37.3765 169.799 37.3847 169.926 37.393C170.242 37.4136 170.559 37.4342 170.842 37.274C170.893 37.2364 170.927 37.187 170.937 37.1335C170.947 37.08 170.933 37.0255 170.897 36.9788C170.78 36.7718 170.747 36.5521 170.713 36.3326C170.68 36.1178 170.647 35.903 170.537 35.7005C170.448 35.3801 170.359 35.06 170.27 34.7398C170.008 33.7963 169.746 32.853 169.491 31.9049C169.251 31.0148 169.018 30.1241 168.785 29.2336ZM167.845 31.952C167.786 31.7136 167.726 31.4753 167.668 31.2367C167.34 31.7886 167.213 32.3566 167.087 32.9205C167.027 33.188 166.967 33.4546 166.886 33.7181C166.795 34.0313 167.107 34.1403 167.451 34.0747C167.53 34.0598 167.629 34.0606 167.73 34.0614C168.016 34.0637 168.321 34.0661 168.254 33.7118C168.139 33.123 167.992 32.5374 167.845 31.952Z" fill="#3CB7C8"/>
<path fill-rule="evenodd" clip-rule="evenodd" d="M70.0414 35.3747C70.1233 34.4224 70.0936 33.4584 69.7789 32.5177L69.7831 32.5314C69.5547 32.4885 69.4341 32.3603 69.3117 32.2303C69.2321 32.1458 69.1518 32.0604 69.0407 31.9971C68.4277 31.6531 67.7583 31.6699 67.0873 31.6867C66.9781 31.6894 66.8688 31.6922 66.7597 31.6934C66.2713 31.6987 66.0878 31.5569 66.0963 31.1939C66.1039 30.856 66.1008 30.5187 66.0978 30.1817C66.0934 29.7072 66.0891 29.2335 66.1147 28.7601C66.1401 28.3104 65.8366 28.2723 65.3835 28.2977C65.3087 28.3019 65.2324 28.3007 65.1577 28.2995C64.8318 28.2944 64.5366 28.2898 64.5366 28.7305C64.5578 31.4066 64.5493 34.0838 64.5366 36.7609C64.5366 37.0784 64.6637 37.2022 65.1012 37.1916C65.9473 37.1534 66.7958 37.1534 67.6419 37.1916C69.2651 37.3016 69.9567 36.3715 70.0414 35.3747ZM66.2506 34.1916C66.2442 34.2621 66.2442 34.3328 66.2506 34.4032V35.1937C66.2506 35.3185 66.2506 35.4434 66.4045 35.5291C67.01 35.855 68.1872 35.4879 68.3128 34.9238C68.3473 34.7133 68.3568 34.5008 68.341 34.289C68.3255 33.5112 68.0856 33.3874 66.9564 33.3451C66.1841 33.313 66.2149 33.6099 66.2463 33.9122C66.2563 34.0083 66.2663 34.1049 66.2506 34.1916Z" fill="#3CB6C8"/>
<circle cx="172.25" cy="4.04413" r="3.55634" fill="#3CB7C8"/>
</svg>
