<svg width="126" height="32" viewBox="0 0 126 32" fill="none" xmlns="http://www.w3.org/2000/svg">
<path fill-rule="evenodd" clip-rule="evenodd" d="M4.18828 8.34029C6.25547 8.34029 7.93126 6.68028 7.93126 4.63255C7.93126 2.58482 6.25547 0.924805 4.18828 0.924805C2.1211 0.924805 0.445312 2.58482 0.445312 4.63255C0.445312 6.68028 2.1211 8.34029 4.18828 8.34029ZM0.885742 31.328H7.1535V10.5658H0.885742V31.328ZM12.6352 22.2069H23.4901V17.8289H12.6352V22.2069ZM28.179 23.4096V29.747C29.3374 30.3166 30.572 30.717 31.8448 30.936C33.3134 31.2037 34.8037 31.3349 36.2966 31.328C37.7533 31.3359 39.2068 31.1909 40.6332 30.8956C41.9138 30.6428 43.1361 30.1548 44.2379 29.4565C45.2612 28.8052 46.1045 27.9086 46.6907 26.8486C47.3291 25.6165 47.6394 24.2416 47.5919 22.8556C47.6145 21.8276 47.4398 20.8048 47.0771 19.8423C46.7359 18.9826 46.2295 18.1977 45.5864 17.5317C44.8959 16.8249 44.1116 16.2156 43.2555 15.7209C42.2707 15.1468 41.2473 14.6411 40.1927 14.2074C39.3593 13.8629 38.6072 13.5318 37.9499 13.2075C37.3596 12.9246 36.7931 12.5947 36.2559 12.2211C35.8386 11.9284 35.4762 11.5648 35.1854 11.1469C34.9339 10.7689 34.8039 10.3235 34.8127 9.86993C34.8068 9.45426 34.9222 9.04582 35.1447 8.69429C35.3923 8.32772 35.7187 8.02075 36.1001 7.79569C36.5702 7.52289 37.0799 7.32461 37.6111 7.20796C38.2632 7.06672 38.9291 6.99872 39.5964 7.00525C40.1562 7.00856 40.7152 7.0469 41.2701 7.12006C41.8692 7.20271 42.4623 7.32458 43.0453 7.48489C43.64 7.65286 44.222 7.86284 44.7868 8.11322C45.3322 8.355 45.8539 8.64679 46.3452 8.98482V3.06632C45.3208 2.67911 44.2577 2.40275 43.1741 2.24201C41.8704 2.05497 40.5544 1.96688 39.2373 1.97849C37.7936 1.96865 36.3538 2.12969 34.9481 2.45823C33.6801 2.7498 32.4736 3.2621 31.384 3.9716C30.3749 4.64213 29.5409 5.5432 28.9514 6.59987C28.3305 7.77232 28.0247 9.08515 28.0638 10.4105C28.0167 12.1608 28.5955 13.8707 29.6969 15.2345C31.0497 16.7541 32.7581 17.9169 34.6703 18.6193C35.5443 18.9774 36.3574 19.3287 37.1096 19.6733C37.7925 19.9711 38.4478 20.3284 39.0679 20.7408C39.5688 21.0653 40.0091 21.4746 40.3688 21.9501C40.6848 22.3784 40.8514 22.8982 40.8431 23.4298C40.8481 23.8302 40.7452 24.2246 40.5449 24.5716C40.3247 24.9452 40.0151 25.2585 39.6438 25.4837C39.1757 25.7635 38.6655 25.9666 38.1328 26.085C37.4387 26.2377 36.7294 26.3103 36.0187 26.3012C33.1455 26.2876 30.3694 25.2636 28.179 23.4096ZM58.7518 31.328C60.1854 31.4101 61.6186 31.1603 62.9393 30.5983L62.9394 25.9635C62.3177 26.3262 61.6132 26.5239 60.8931 26.5378C59.2127 26.54 58.3725 25.4838 58.3725 23.3691V15.1804H62.9393V10.5658H58.3724V4.41081L52.1183 6.19443V10.5658H48.8253V15.1804H52.1182V24.4636C52.1228 29.0399 54.334 31.328 58.7518 31.328ZM71.7216 30.7133C73.0935 31.2006 74.5493 31.4096 76.0033 31.328C77.4863 31.4102 78.9706 31.1935 80.3677 30.6909C81.7647 30.1882 83.0458 29.4099 84.1344 28.4025C85.1491 27.3449 85.9358 26.0913 86.4463 24.7191C86.9567 23.3468 87.18 21.8849 87.1023 20.4233C87.1638 19.0411 86.94 17.6611 86.4446 16.3687C85.9492 15.0763 85.1929 13.8992 84.2225 12.9102C83.1574 11.9302 81.9055 11.174 80.5412 10.6865C79.1768 10.1989 77.7281 9.99017 76.2812 10.0726C73.2938 9.91506 70.364 10.9342 68.123 12.9102C67.0923 13.9361 66.2908 15.1677 65.7711 16.5243C65.2515 17.8808 65.0254 19.3316 65.1077 20.7814C65.0343 22.1966 65.2546 23.6117 65.7548 24.9382C66.255 26.2646 67.0243 27.4739 68.0145 28.4904C69.0894 29.4702 70.3497 30.226 71.7216 30.7133ZM74.2565 15.2125C74.8568 14.9484 75.5108 14.8287 76.166 14.8628C79.1971 14.8605 80.7126 16.7546 80.7126 20.5449C80.7103 24.5402 79.2083 26.5378 76.2066 26.5378C73.0536 26.5378 71.477 24.592 71.477 20.7003C71.3816 19.163 71.8168 17.6394 72.7103 16.383C73.1267 15.8775 73.6563 15.4765 74.2565 15.2125ZM101.792 16.0858C102.711 16.0647 103.62 16.2762 104.435 16.7006L104.435 10.9375C103.938 10.7602 103.411 10.6799 102.883 10.701C101.654 10.6809 100.454 11.0777 99.4802 11.8265C98.5064 12.5753 97.8166 13.6316 97.5237 14.8224H97.4424V11.0591H91.1746V31.328H97.4423V21.6462C97.364 20.2006 97.7691 18.7701 98.5942 17.5789C98.9676 17.0919 99.4532 16.7019 100.01 16.442C100.567 16.1821 101.178 16.0599 101.792 16.0858ZM112.2 22.484H125.461V19.849C125.601 17.2432 124.729 14.6836 123.028 12.7009C122.136 11.7987 121.061 11.0974 119.875 10.6441C118.688 10.1907 117.419 9.99586 116.151 10.0726C114.808 10.0428 113.474 10.2889 112.231 10.7957C110.989 11.3026 109.864 12.0591 108.927 13.0184C107.92 14.0842 107.14 15.3427 106.635 16.7176C106.13 18.0926 105.909 19.5554 105.987 21.0178C105.904 22.3997 106.102 23.784 106.569 25.0877C107.036 26.3915 107.762 27.5878 108.704 28.6052C109.727 29.5511 110.932 30.2801 112.245 30.7482C113.559 31.2162 114.955 31.4135 116.347 31.328C118.875 31.4313 121.389 30.9163 123.672 29.8281V25.3149C121.898 26.3909 119.853 26.9393 117.777 26.8959C114.269 26.8936 112.41 25.423 112.2 22.484ZM116.11 14.2885C118.468 14.2907 119.647 15.7411 119.647 18.6395H112.16C112.279 17.4916 112.747 16.4073 113.501 15.5316C113.816 15.1443 114.214 14.8317 114.665 14.6167C115.116 14.4017 115.61 14.2896 116.11 14.2885Z" fill="#404040"/>
</svg>
