<svg width="134" height="44" viewBox="0 0 134 44" fill="none" xmlns="http://www.w3.org/2000/svg">
<g clip-path="url(#clip0_109_3489)">
<path fill-rule="evenodd" clip-rule="evenodd" d="M4.9646 40.8773C4.9646 42.071 3.94986 43.0374 2.70535 43.0374C1.46085 43.0374 0.446106 42.0729 0.446106 40.8773V28.1232C0.446106 26.9296 1.45511 25.963 2.70535 25.963C3.95559 25.963 4.9646 26.9278 4.9646 28.1232V40.8773ZM5.40881 21.606C5.40881 23.0339 4.19876 24.1927 2.70344 24.1927C1.21004 24.1927 0 23.0303 0 21.6023C0 20.1745 1.21004 19.0156 2.70344 19.0156C4.19683 19.0156 5.40881 20.1745 5.40881 21.6023V21.606ZM25.8378 19.3012H19.9063C19.9063 19.3012 8.00117 20.2861 8.00117 30.8747C8.00117 40.9359 18.1735 42.6365 19.3108 42.6365H26.8697C26.8697 42.6365 28.6733 42.5783 28.6733 40.6632C28.6733 38.7503 27.0076 38.7868 26.7089 38.7868H19.5961C19.5961 38.7868 12.5197 38.2101 12.5197 30.9698C12.5197 23.7296 19.9293 23.2701 20.1513 23.2701H26.079C26.3374 23.2701 27.9687 23.2701 27.9687 21.3204C27.9687 19.3763 26.3222 19.3067 25.8301 19.3067L25.8378 19.3012ZM42.4049 36.8737C40.2566 39.66 38.3077 39.2591 37.8098 39.2591C37.3178 39.2591 34.9188 39.1125 35.2174 37.2014C35.5142 35.2884 37.6624 35.358 37.6624 35.358H42.5295C42.7267 36.4691 42.4049 36.8682 42.4049 36.8682V36.8737ZM47.025 40.6943V31.8376C47.025 31.8376 46.5271 25.6738 38.8648 25.6738H39.018C39.018 25.6738 33.0252 25.4266 32.6155 28.3685C32.6155 28.3685 32.4662 30.104 34.5416 30.104C34.5416 30.104 34.8326 30.2266 35.4702 29.9978C35.4702 29.9978 38.6561 28.5808 41.3977 29.9978C41.3977 29.9978 42.5849 30.7062 42.5849 31.8028H37.2508C37.2508 31.8028 31.3959 31.8394 31.0283 37.011C30.6549 42.1845 36.8066 42.9239 36.8066 42.9239C36.8066 42.9239 39.0276 43.3158 40.8464 42.2889L42.6595 41.2598C42.6595 41.2598 42.7322 42.9991 44.9187 42.9991C47.1051 42.9991 47.0305 40.6962 47.0305 40.6962L47.025 40.6943ZM61.9111 29.833H55.1907C55.1907 29.833 54.1568 29.833 54.1568 30.6843C54.1568 31.5337 55.0681 31.7222 55.0681 31.7222C55.0681 31.7222 59.8854 32.9744 60.7987 33.3039C61.7139 33.6335 64.5515 34.5561 64.5515 37.9099C64.5515 41.2636 61.3425 42.6331 59.353 42.6331H51.9358C51.9358 42.6331 49.9352 42.5159 49.9352 40.7657C49.9352 39.0193 51.7157 38.9239 51.7157 38.9239H59.1749C59.1749 38.9239 60.2355 38.9239 60.2355 37.789C60.2355 36.6596 57.4212 36.255 57.2451 36.233C57.073 36.2074 53.4157 35.5465 52.1083 34.5085C50.7986 33.4705 49.9352 32.3575 49.9352 30.6092C49.9352 28.8628 51.0457 26.5012 54.4535 26.0289H61.9893C61.9893 26.0289 63.7431 26.1021 63.7431 27.8705C63.7431 29.6463 62.1391 29.833 61.9147 29.833H61.9111ZM99.876 29.833H93.1555C93.1555 29.833 92.1181 29.833 92.1181 30.6843C92.1181 31.5337 93.0329 31.7222 93.0329 31.7222C93.0329 31.7222 97.8503 32.9744 98.7635 33.3039C99.6767 33.6335 102.516 34.5561 102.516 37.9099C102.516 41.2636 99.3074 42.6331 97.3202 42.6331H89.8912C89.8912 42.6331 87.8887 42.5159 87.8887 40.7657C87.8887 39.0193 89.6692 38.9239 89.6692 38.9239H97.1284C97.1284 38.9239 98.1929 38.9239 98.1929 37.789C98.1929 36.6596 95.3746 36.255 95.2025 36.233C95.03 36.2074 91.3731 35.5465 90.0637 34.5085C88.752 33.4705 87.8887 32.3575 87.8887 30.6092C87.8887 28.8628 88.9992 26.5012 92.4069 26.0289H99.9432C99.9432 26.0289 101.699 26.1021 101.699 27.8705C101.699 29.6463 100.091 29.833 99.8681 29.833H99.876ZM71.9607 32.6705C71.9607 32.6705 72.5545 29.4559 76.4315 29.4559C80.3084 29.4559 80.9002 32.6687 80.9002 32.6687H71.9588L71.9607 32.6705ZM85.101 33.6152C84.3599 25.725 76.6535 25.725 76.6535 25.725C67.7604 25.725 67.3678 34.1351 67.3678 34.1351C67.3678 39.2827 71.268 43.0137 76.9981 43.0137C82.7307 43.0137 83.3739 40.7 83.3739 39.9455C83.3739 39.1895 82.432 37.2508 80.0098 38.384C77.5899 39.5191 76.7989 39.2388 76.7989 39.2388C72.4527 39.2388 71.9128 35.9804 71.9128 35.9804H82.88C85.1332 35.9804 85.1045 33.6188 85.1045 33.6188" fill="#404040"/>
<path d="M105.595 13.1318C105.595 12.0269 106.532 11.1306 107.688 11.1306C108.844 11.1306 109.782 12.0269 109.782 13.1318C109.782 15.5811 110.831 17.8093 112.521 19.4254C114.212 21.0417 116.542 22.0454 119.103 22.0454C121.665 22.0454 123.995 21.0417 125.686 19.4254C127.376 17.8093 128.426 15.5811 128.426 13.1318C128.426 12.0269 129.362 11.1306 130.519 11.1306C131.675 11.1306 132.612 12.0269 132.612 13.1318C132.612 16.686 131.093 19.9153 128.645 22.2553C126.198 24.5953 122.821 26.0477 119.103 26.0477C115.386 26.0477 112.009 24.5953 109.561 22.2553C107.114 19.9153 105.595 16.686 105.595 13.1318Z" fill="#499831"/>
<path d="M121.867 4.6356C120.765 4.31208 120.147 3.19511 120.485 2.14211C120.824 1.08844 121.991 0.496666 123.094 0.820996C126.646 1.87208 129.425 4.21408 131.038 7.13992C132.651 10.0645 133.104 13.5758 132.006 16.9682C131.666 18.0218 130.499 18.6135 129.397 18.2893C128.296 17.9656 127.677 16.8487 128.015 15.7957C128.774 13.4531 128.46 11.0253 127.343 9.00009C126.226 6.97682 124.311 5.35933 121.867 4.6356Z" fill="#A9DB44"/>
<path d="M111.888 6.62879C111.888 7.965 110.755 9.0485 109.357 9.0485C107.96 9.0485 106.827 7.965 106.827 6.62879C106.827 5.29258 107.96 4.20923 109.357 4.20923C110.755 4.20923 111.888 5.29258 111.888 6.62879Z" fill="#9CC244"/>
<path d="M115.118 25.4894C114.016 25.1658 113.398 24.0489 113.736 22.9952C114.074 21.9422 115.243 21.3505 116.344 21.6742C118.794 22.3992 121.333 22.099 123.451 21.0313C125.567 19.9644 127.26 18.1332 128.016 15.7959C128.354 14.7422 129.523 14.1506 130.624 14.4747C131.726 14.7984 132.345 15.9153 132.006 16.9684C130.906 20.3657 128.457 23.0218 125.398 24.5647C122.339 26.107 118.666 26.5393 115.118 25.4894Z" fill="#006B34"/>
<path d="M111.888 6.62879C111.888 7.965 110.755 9.0485 109.357 9.0485C107.96 9.0485 106.827 7.965 106.827 6.62879C106.827 5.29258 107.96 4.20923 109.357 4.20923C110.755 4.20923 111.888 5.29258 111.888 6.62879Z" fill="#8DBD2D"/>
</g>
<defs>
<clipPath id="clip0_109_3489">
<rect width="134" height="42.4576" fill="white" transform="translate(0 0.800293)"/>
</clipPath>
</defs>
</svg>
