<svg width="49" height="21" viewBox="0 0 49 21" fill="none" xmlns="http://www.w3.org/2000/svg">
<path d="M40.0966 20.1375C42.2974 20.1375 43.3332 19.3108 44.238 16.8051L48.2017 5.86105H45.9068L43.2487 14.3281H43.2021L40.5441 5.87251H38.1841L42.0081 16.2891L41.8032 16.9227C41.6586 17.8296 40.8315 18.4766 39.9005 18.4097C39.7228 18.4097 39.3782 18.3915 39.2384 18.3733V20.0935C39.5228 20.1317 39.8102 20.1499 40.0966 20.1489V20.1375ZM32.4487 14.6568C31.2449 14.6568 30.4809 14.0834 30.4809 13.2157C30.4809 12.3164 31.2177 11.7928 32.6263 11.7096L35.1348 11.5538V12.3623C35.0795 13.6945 33.9369 14.7314 32.5836 14.6769C32.538 14.675 32.4933 14.6712 32.4487 14.6673V14.6568ZM31.8429 16.355C33.2088 16.3913 34.4863 15.6908 35.1727 14.5278H35.2193V16.248H37.3084V9.12363C37.3084 7.05752 35.6299 5.7263 33.0457 5.7263C30.6488 5.7263 28.8761 7.07567 28.8111 8.93059H30.8449C31.0876 7.98736 31.9982 7.36524 32.9806 7.47036C34.3611 7.47036 35.1348 8.10395 35.1348 9.26984V10.0592L32.3195 10.2245C29.6984 10.3803 28.281 11.4363 28.281 13.273C28.2791 15.1356 29.7431 16.3655 31.8419 16.3655L31.8429 16.355ZM19.7361 3.80449H22.3378C24.2969 3.80449 25.4162 4.83277 25.4162 6.64181C25.4162 8.45085 24.2969 9.48773 22.3291 9.48773H19.7361V3.80449ZM17.479 1.93142V16.2451H19.7361V11.3656H22.8611C25.4065 11.5003 27.5801 9.57852 27.717 7.07281C27.7248 6.93042 27.7257 6.78898 27.7199 6.64659C27.8403 4.16859 25.8977 2.06426 23.3805 1.9448C23.2319 1.93811 23.0844 1.93907 22.9359 1.94576L17.479 1.93142ZM9.98741 4.60246C8.69043 4.52887 7.58081 5.32779 6.96533 5.32779C6.34984 5.32779 5.39847 4.63973 4.37234 4.65884C3.01323 4.69324 1.77449 5.43387 1.11727 6.6055C-0.281648 8.97455 0.75322 12.4818 2.10553 14.4093C2.76762 15.365 3.56173 16.4114 4.60533 16.3741C5.5936 16.3378 5.98579 15.7405 7.17987 15.7405C8.37395 15.7405 8.72829 16.3741 9.77286 16.355C10.8543 16.3369 11.5358 15.3994 12.1998 14.4437C12.6678 13.7671 13.0318 13.0265 13.2813 12.2457C12.0067 11.6972 11.1805 10.4615 11.1737 9.09209C11.1931 7.88415 11.8358 6.76987 12.8804 6.13627C12.2144 5.20547 11.1456 4.63399 9.98935 4.59386L9.98741 4.60246ZM9.17776 3.33814C8.60985 4.04245 7.74099 4.44669 6.82747 4.43044C6.76923 3.55316 7.07211 2.69021 7.66721 2.03463C8.2594 1.35803 9.09428 0.933727 9.99712 0.850586C10.0612 1.75272 9.76704 2.64338 9.17582 3.33527" fill="black"/>
</svg>
