<svg width="49" height="19" viewBox="0 0 49 19" fill="none" xmlns="http://www.w3.org/2000/svg">
<path d="M23.4527 9.28786V14.7214H21.6895V1.3029H26.366C26.9242 1.2915 27.4792 1.38829 27.9989 1.58767C28.5187 1.78705 28.9929 2.08508 29.3942 2.46457C29.7996 2.82101 30.1222 3.25815 30.3404 3.7466C30.5586 4.23506 30.6673 4.76351 30.6592 5.29645C30.6708 5.83224 30.5637 6.36414 30.3454 6.85571C30.1271 7.34728 29.8026 7.78688 29.3942 8.1444C28.5765 8.9067 27.567 9.2875 26.366 9.28679H23.4527V9.28786ZM23.4527 2.95493V7.63905H26.4098C26.734 7.64844 27.0566 7.59159 27.357 7.47212C27.6574 7.35266 27.929 7.17321 28.1544 6.94526C28.3787 6.73213 28.5569 6.47721 28.6787 6.19557C28.8004 5.91393 28.8631 5.61129 28.8631 5.30555C28.8631 4.99981 28.8004 4.69717 28.6787 4.41553C28.5569 4.13389 28.3787 3.87897 28.1544 3.66584C27.9318 3.43309 27.6612 3.24925 27.3604 3.1265C27.0596 3.00375 26.7356 2.9449 26.4098 2.95386H23.4527V2.95493Z" fill="#5F6368"/>
<path d="M34.7226 5.24048C36.0259 5.24048 37.0547 5.58095 37.8089 6.26188C38.5631 6.94282 38.9399 7.87643 38.9392 9.06272V14.7211H37.2525V13.4471H37.1759C36.4457 14.4963 35.4747 15.0209 34.2626 15.0209C33.228 15.0209 32.3625 14.7211 31.6659 14.1216C31.3316 13.8464 31.0644 13.5018 30.8836 13.1128C30.7029 12.7238 30.6132 12.3003 30.6211 11.8732C30.6211 10.9232 30.9883 10.1676 31.7229 9.60661C32.4574 9.04559 33.438 8.76436 34.6646 8.76294C35.7116 8.76294 36.5739 8.9503 37.2515 9.32503V8.93103C37.2534 8.63983 37.1891 8.35184 37.0632 8.08796C36.9372 7.82407 36.7527 7.5909 36.5231 7.40534C36.0569 6.99408 35.4492 6.76968 34.8212 6.77687C33.8362 6.77687 33.0568 7.18301 32.4829 7.99528L30.9299 7.03918C31.7842 5.84005 33.0484 5.24048 34.7226 5.24048ZM32.4413 11.9107C32.4401 12.13 32.4926 12.3465 32.5943 12.5421C32.6961 12.7376 32.8441 12.9066 33.0262 13.0349C33.4161 13.3347 33.9002 13.4936 34.3963 13.4845C35.1403 13.4833 35.8536 13.1938 36.3797 12.6794C36.9638 12.1419 37.2558 11.5113 37.2558 10.7875C36.706 10.3593 35.9394 10.1452 34.9559 10.1452C34.2396 10.1452 33.6424 10.314 33.1641 10.6516C32.6812 10.9942 32.4413 11.4107 32.4413 11.9107Z" fill="#5F6368"/>
<path d="M48.6207 5.54028L42.7329 18.7682H40.9127L43.0976 14.1398L39.2261 5.54028H41.1427L43.9409 12.1355H43.9793L46.7008 5.54028H48.6207Z" fill="#5F6368"/>
<path d="M16.3276 8.11627C16.3283 7.59095 16.2828 7.06655 16.1918 6.54883H8.75537V9.51776H13.0146C12.9275 9.99194 12.743 10.444 12.4723 10.8466C12.2016 11.2492 11.8504 11.594 11.4397 11.8604V13.7875H13.9817C15.4701 12.446 16.3276 10.4621 16.3276 8.11627Z" fill="#4285F4"/>
<path d="M8.75541 15.6496C10.8834 15.6496 12.6751 14.9665 13.9817 13.7888L11.4397 11.8616C10.7322 12.3306 9.82104 12.5983 8.75541 12.5983C6.69861 12.5983 4.95286 11.2428 4.32859 9.41626H1.70996V11.4023C2.36628 12.6791 3.37267 13.7523 4.61679 14.5023C5.8609 15.2524 7.29376 15.6496 8.75541 15.6496Z" fill="#34A853"/>
<path d="M4.32841 9.41629C3.99838 8.45917 3.99838 7.42268 4.32841 6.46556V4.47949H1.70978C1.15766 5.55353 0.870117 6.7389 0.870117 7.94092C0.870117 9.14295 1.15766 10.3283 1.70978 11.4024L4.32841 9.41629Z" fill="#FBBC04"/>
<path d="M8.75541 3.28357C9.87995 3.26561 10.9666 3.68097 11.7804 4.43987L14.031 2.23968C12.6039 0.929274 10.7132 0.209841 8.75541 0.232195C7.29376 0.23226 5.8609 0.629467 4.61679 1.37947C3.37267 2.12947 2.36628 3.20275 1.70996 4.47949L4.32859 6.46556C4.95286 4.63902 6.69861 3.28357 8.75541 3.28357Z" fill="#EA4335"/>
</svg>
