<svg width="48" height="15" viewBox="0 0 48 15" fill="none" xmlns="http://www.w3.org/2000/svg">
<path d="M44.6639 0.490234H41.6621C40.7545 0.490234 40.0564 0.765121 39.6376 1.6585L33.9131 14.5094H37.9621C37.9621 14.5094 38.6602 12.7914 38.7998 12.3791C39.2187 12.3791 43.1979 12.3791 43.7564 12.3791C43.896 12.8601 44.2451 14.4407 44.2451 14.4407H47.8752L44.6639 0.490234ZM39.9168 9.49277C40.2659 8.66811 41.4526 5.57563 41.4526 5.57563C41.4526 5.64436 41.8017 4.75097 41.9413 4.26992L42.2206 5.50691C42.2206 5.50691 42.9885 8.87427 43.1281 9.56149H39.9168V9.49277Z" fill="#3362AB"/>
<path d="M34.1922 9.9052C34.1922 12.7915 31.5394 14.7157 27.4205 14.7157C25.6753 14.7157 23.9998 14.3721 23.0923 13.9598L23.6508 10.7986L24.1394 11.0047C25.396 11.5545 26.2338 11.7607 27.7696 11.7607C28.8866 11.7607 30.0734 11.3484 30.0734 10.3863C30.0734 9.76776 29.5847 9.35543 28.0488 8.66822C26.5828 7.981 24.6281 6.88145 24.6281 4.88853C24.6281 2.13966 27.3507 0.28418 31.1903 0.28418C32.6563 0.28418 33.9129 0.559066 34.6809 0.902674L34.1224 3.92642L33.8431 3.65154C33.145 3.37665 32.2375 3.10177 30.9111 3.10177C29.4451 3.17049 28.7469 3.78898 28.7469 4.33875C28.7469 4.95725 29.5847 5.4383 30.9111 6.05679C33.145 7.08762 34.1922 8.25589 34.1922 9.9052Z" fill="#3362AB"/>
<path d="M0.124512 0.627914L0.194322 0.353027H6.19805C7.03577 0.353027 7.66407 0.627914 7.8735 1.52129L9.19991 7.70624C7.8735 4.4076 4.80183 1.72746 0.124512 0.627914Z" fill="#F9B50B"/>
<path d="M17.6473 0.490108L11.5737 14.4406H7.45489L3.96436 2.75792C6.47754 4.33852 8.57186 6.8125 9.33978 8.53054L9.75865 9.97369L13.5284 0.421387H17.6473V0.490108Z" fill="#3362AB"/>
<path d="M19.2529 0.421387H23.0925L20.6492 14.4406H16.8096L19.2529 0.421387Z" fill="#3362AB"/>
</svg>
